<svg width="54" height="54" viewBox="0 0 54 54" fill="none" xmlns="http://www.w3.org/2000/svg">
<g clip-path="url(#clip0_1038_584)">
<path d="M12.4 25.585C12.4 33.415 18.74 39.755 26.57 39.755C34.4 39.755 40.74 33.405 40.74 25.585" stroke="#764199" stroke-width="2.13" stroke-linecap="round" stroke-linejoin="round"/>
<path d="M16.97 43.3047L26.34 51.0947L35.67 43.3347" stroke="#764199" stroke-width="2.13" stroke-linecap="round" stroke-linejoin="round"/>
<path d="M33.05 30.0149C31.4 31.7749 29.05 32.8849 26.46 32.8849C23.73 32.8849 21.28 31.6549 19.62 29.7349" stroke="#764199" stroke-width="2.13" stroke-linecap="round" stroke-linejoin="round"/>
<path d="M18.07 36.9248V39.9248C18.07 42.1848 16.24 44.0148 13.98 44.0148H9.56C4.86 44.0148 1.06 47.8248 1.06 52.5148" stroke="#764199" stroke-width="2.13" stroke-linecap="round" stroke-linejoin="round"/>
<path d="M52.09 52.5148C52.09 47.8148 48.28 44.0148 43.59 44.0148H39.17C36.91 44.0148 35.08 42.1848 35.08 39.9248V36.9248" stroke="#764199" stroke-width="2.13" stroke-linecap="round" stroke-linejoin="round"/>
<path d="M12.4 17.0747H9.34C8.68 17.0747 8.14 17.6147 8.14 18.2747V25.7847C8.14 27.2447 9.32 28.4247 10.78 28.4247H12.4" stroke="#764199" stroke-width="2.13" stroke-linecap="round" stroke-linejoin="round"/>
<path d="M40.75 17.0747H43.81C44.47 17.0747 45.01 17.6147 45.01 18.2747V25.7847C45.01 27.2447 43.83 28.4247 42.37 28.4247H40.76" stroke="#764199" stroke-width="2.13" stroke-linecap="round" stroke-linejoin="round"/>
<path d="M12.4 19.9149V1.48486H40.75V19.9149" stroke="#764199" stroke-width="2.13" stroke-linecap="round" stroke-linejoin="round"/>
<path d="M40.75 19.915H25.16C23.59 19.915 22.33 18.645 22.33 17.085" stroke="#764199" stroke-width="2.13" stroke-linecap="round" stroke-linejoin="round"/>
<path d="M12.4 14.2446H40.75" stroke="#764199" stroke-width="2.13" stroke-linecap="round" stroke-linejoin="round"/>
<path d="M47.83 12.8247V14.2447" stroke="#764199" stroke-width="2.13" stroke-linecap="round" stroke-linejoin="round"/>
<path d="M5.32001 1.48486H47.83V8.57486" stroke="#764199" stroke-width="2.13" stroke-linecap="round" stroke-linejoin="round"/>
</g>
<defs>
<clipPath id="clip0_1038_584">
<rect width="53.15" height="53.15" fill="white" transform="translate(0 0.424805)"/>
</clipPath>
</defs>
</svg>
