<svg width="52" height="52" viewBox="0 0 52 52" fill="none" xmlns="http://www.w3.org/2000/svg">
<g clip-path="url(#clip0_1038_442)">
<path d="M47.85 51.51H44.82C44.2 51.51 43.71 51.01 43.71 50.4C43.71 49.79 44.21 49.29 44.82 49.29H47.85C48.39 49.29 48.65 48.92 48.74 48.76C48.83 48.6 49 48.18 48.7 47.73L40.79 35.35C40.57 35.01 40.56 34.57 40.75 34.21C40.95 33.85 41.32 33.63 41.73 33.63H44.78C45.32 33.63 45.58 33.26 45.67 33.1C45.76 32.94 45.93 32.52 45.63 32.07L40.14 23.48C39.92 23.14 39.91 22.7 40.1 22.34C40.3 21.98 40.67 21.76 41.08 21.76H43.44C43.98 21.76 44.24 21.39 44.33 21.23C44.42 21.07 44.59 20.65 44.3 20.2L37.73 9.92002L37.11 10.9C36.78 11.42 36.09 11.57 35.57 11.24C35.05 10.91 34.9 10.22 35.23 9.70002L36.79 7.25002C37.2 6.61002 38.26 6.61002 38.67 7.25002L46.18 19C46.83 20.01 46.87 21.25 46.29 22.3C45.71 23.35 44.65 23.99 43.45 23.99H43.12L47.52 30.87C48.17 31.88 48.21 33.12 47.63 34.17C47.05 35.23 45.99 35.86 44.78 35.86H43.76L50.58 46.53C51.23 47.54 51.27 48.78 50.69 49.83C50.11 50.88 49.05 51.52 47.85 51.52" fill="#B0C536"/>
<path d="M3.24998 51.51H6.26998C6.88998 51.51 7.37998 51.01 7.37998 50.4C7.37998 49.79 6.87998 49.29 6.26998 49.29H3.24998C2.70998 49.29 2.44998 48.92 2.35998 48.76C2.26998 48.6 2.09998 48.18 2.39998 47.73L10.31 35.35C10.53 35.01 10.54 34.57 10.35 34.21C10.15 33.85 9.77998 33.63 9.36998 33.63H6.31998C5.77998 33.63 5.51998 33.26 5.42998 33.1C5.33998 32.94 5.16998 32.52 5.46998 32.07L10.96 23.48C11.18 23.14 11.19 22.7 11 22.34C10.8 21.98 10.43 21.76 10.02 21.76H7.65998C7.11998 21.76 6.85998 21.39 6.76998 21.23C6.67998 21.07 6.50998 20.65 6.79998 20.2L13.37 9.92002L13.99 10.9C14.32 11.42 15.01 11.57 15.53 11.24C16.05 10.91 16.2 10.22 15.87 9.70002L14.31 7.25002C13.9 6.61002 12.84 6.61002 12.43 7.25002L4.91998 19C4.26998 20.01 4.22998 21.25 4.80998 22.3C5.38998 23.35 6.44998 23.99 7.64998 23.99H7.97998L3.57998 30.87C2.92998 31.88 2.88998 33.12 3.46998 34.17C4.04998 35.23 5.10998 35.86 6.31998 35.86H7.33998L0.519979 46.52C-0.130021 47.53 -0.170021 48.77 0.409979 49.82C0.989979 50.87 2.04998 51.51 3.24998 51.51Z" fill="#B0C536"/>
<path d="M36.99 50.7302H32.16C31.55 50.7302 31.05 50.2302 31.05 49.6202C31.05 49.0102 31.55 48.5102 32.16 48.5102H36.99C37.47 48.5102 37.89 48.2602 38.12 47.8402C38.35 47.4202 38.33 46.9302 38.07 46.5302L29.13 32.5502C28.91 32.2102 28.9 31.7702 29.09 31.4202C29.29 31.0602 29.66 30.8402 30.07 30.8402H33.52C34 30.8402 34.42 30.5902 34.65 30.1702C34.88 29.7502 34.86 29.2602 34.61 28.8602L28.41 19.1502C28.19 18.8102 28.18 18.3702 28.37 18.0102C28.57 17.6502 28.94 17.4302 29.35 17.4302H32.02C32.5 17.4302 32.92 17.1802 33.15 16.7602C33.38 16.3402 33.36 15.8502 33.11 15.4502L25.57 3.65023L18.03 15.4502C17.77 15.8502 17.76 16.3402 17.99 16.7602C18.22 17.1802 18.64 17.4302 19.12 17.4302H21.79C22.2 17.4302 22.57 17.6502 22.77 18.0102C22.97 18.3702 22.95 18.8002 22.73 19.1502L19.96 23.4802C19.63 24.0002 18.94 24.1502 18.42 23.8202C17.9 23.4902 17.75 22.8002 18.08 22.2802L19.75 19.6702H19.12C17.81 19.6702 16.66 18.9902 16.03 17.8402C15.4 16.6902 15.45 15.3502 16.15 14.2502L24.61 0.970234C25.02 0.330234 26.08 0.330234 26.49 0.970234L34.97 14.2402C35.67 15.3402 35.72 16.6802 35.09 17.8302C34.46 18.9702 33.31 19.6602 32.01 19.6602H31.38L36.49 27.6502C37.19 28.7502 37.24 30.0902 36.61 31.2402C35.98 32.3802 34.83 33.0702 33.52 33.0702H32.11L39.95 45.3402C40.65 46.4402 40.7 47.7802 40.07 48.9202C39.44 50.0702 38.29 50.7502 36.98 50.7502" fill="#B0C536"/>
<path d="M14.11 50.7302H18.94C19.55 50.7302 20.05 50.2302 20.05 49.6202C20.05 49.0102 19.55 48.5102 18.94 48.5102H14.11C13.63 48.5102 13.21 48.2602 12.98 47.8402C12.75 47.4202 12.77 46.9302 13.03 46.5302L21.97 32.5502C22.19 32.2102 22.2 31.7702 22.01 31.4202C21.81 31.0602 21.44 30.8402 21.03 30.8402H17.58C17.1 30.8402 16.68 30.5902 16.45 30.1702C16.22 29.7502 16.24 29.2602 16.49 28.8602L22.69 19.1502C22.91 18.8102 22.92 18.3702 22.73 18.0102C22.53 17.6502 22.16 17.4302 21.75 17.4302H19.08C18.6 17.4302 18.18 17.1802 17.95 16.7602C17.72 16.3402 17.74 15.8502 17.99 15.4502L25.53 3.65023L33.07 15.4502C33.33 15.8502 33.34 16.3402 33.11 16.7602C32.88 17.1802 32.46 17.4302 31.98 17.4302H29.31C28.9 17.4302 28.53 17.6502 28.33 18.0102C28.13 18.3702 28.15 18.8002 28.37 19.1502L31.14 23.4802C31.47 24.0002 32.16 24.1502 32.68 23.8202C33.2 23.4902 33.35 22.8002 33.02 22.2802L31.35 19.6702H31.98C33.29 19.6702 34.44 18.9902 35.07 17.8402C35.7 16.6902 35.65 15.3502 34.95 14.2502L26.49 0.970234C26.08 0.330234 25.02 0.330234 24.61 0.970234L16.12 14.2402C15.42 15.3402 15.37 16.6802 16 17.8302C16.63 18.9702 17.78 19.6602 19.08 19.6602H19.71L14.6 27.6502C13.9 28.7502 13.85 30.0902 14.48 31.2402C15.11 32.3802 16.26 33.0702 17.57 33.0702H18.98L11.14 45.3402C10.44 46.4402 10.39 47.7802 11.02 48.9202C11.65 50.0702 12.8 50.7502 14.11 50.7502" fill="#B0C536"/>
</g>
<defs>
<clipPath id="clip0_1038_442">
<rect width="51.1" height="51.02" fill="white" transform="translate(0 0.490234)"/>
</clipPath>
</defs>
</svg>
