<svg width="49" height="52" viewBox="0 0 49 52" fill="none" xmlns="http://www.w3.org/2000/svg">
<g clip-path="url(#clip0_1038_392)">
<path d="M18.83 29.2799C18.37 29.2799 18 28.9099 18 28.4599V18.5199C18 18.0599 18.37 17.6899 18.83 17.6899C19.29 17.6899 19.66 18.0599 19.66 18.5199V28.4599C19.66 28.9199 19.29 29.2799 18.83 29.2799Z" fill="#224390"/>
<path d="M18.83 29.2799C18.37 29.2799 18 28.9099 18 28.4599V18.5199C18 18.0599 18.37 17.6899 18.83 17.6899C19.29 17.6899 19.66 18.0599 19.66 18.5199V28.4599C19.66 28.9199 19.29 29.2799 18.83 29.2799Z" stroke="#224390" stroke-width="0.3" stroke-miterlimit="10"/>
<path d="M29.33 29.2799C28.87 29.2799 28.5 28.9099 28.5 28.4599V18.5199C28.5 18.0599 28.87 17.6899 29.33 17.6899C29.79 17.6899 30.15 18.0599 30.15 18.5199V28.4599C30.15 28.9199 29.78 29.2799 29.33 29.2799Z" fill="#224390"/>
<path d="M29.33 29.2799C28.87 29.2799 28.5 28.9099 28.5 28.4599V18.5199C28.5 18.0599 28.87 17.6899 29.33 17.6899C29.79 17.6899 30.15 18.0599 30.15 18.5199V28.4599C30.15 28.9199 29.78 29.2799 29.33 29.2799Z" stroke="#224390" stroke-width="0.3" stroke-miterlimit="10"/>
<path d="M23.95 11.4097C22.4 11.4097 21.04 10.4397 20.07 8.58975C19.43 7.36975 19.09 5.93975 19.09 4.42975V4.28975C19.09 3.06975 19.74 1.94975 20.8 1.36975C21.53 0.969746 22.69 0.489746 24.07 0.489746C25.45 0.489746 26.77 1.10975 27.57 1.62975C28.52 2.23975 29.09 3.28975 29.09 4.42975C29.09 5.93975 28.74 7.38975 28.09 8.61975C26.83 10.9797 25.2 11.4397 24.07 11.3997C24.03 11.3997 24 11.3997 23.96 11.3997M24.07 2.12975C23.04 2.12975 22.16 2.49975 21.6 2.80975C21.07 3.09975 20.74 3.66975 20.74 4.28975V4.42975C20.74 5.66975 21.01 6.83975 21.53 7.80975C22.22 9.11975 23.08 9.77975 24.06 9.74975C25.09 9.77975 25.94 9.13975 26.63 7.83975C27.16 6.84975 27.43 5.67975 27.43 4.42975C27.43 3.84975 27.15 3.31975 26.67 3.00975C26.05 2.60975 25.1 2.12975 24.06 2.12975" fill="#224390"/>
<path d="M23.95 11.4097C22.4 11.4097 21.04 10.4397 20.07 8.58975C19.43 7.36975 19.09 5.93975 19.09 4.42975V4.28975C19.09 3.06975 19.74 1.94975 20.8 1.36975C21.53 0.969746 22.69 0.489746 24.07 0.489746C25.45 0.489746 26.77 1.10975 27.57 1.62975C28.52 2.23975 29.09 3.28975 29.09 4.42975C29.09 5.93975 28.74 7.38975 28.09 8.61975C26.83 10.9797 25.2 11.4397 24.07 11.3997C24.03 11.3997 24 11.3997 23.96 11.3997L23.95 11.4097ZM24.06 2.13975C23.03 2.13975 22.15 2.50975 21.59 2.81975C21.06 3.10975 20.73 3.67975 20.73 4.29975V4.43975C20.73 5.67975 21 6.84975 21.52 7.81975C22.21 9.12975 23.07 9.78975 24.05 9.75975C25.08 9.78975 25.93 9.14975 26.62 7.84975C27.15 6.85975 27.42 5.68975 27.42 4.43975C27.42 3.85975 27.14 3.32975 26.66 3.01975C26.04 2.61975 25.09 2.13975 24.05 2.13975H24.06Z" stroke="#224390" stroke-width="0.3" stroke-miterlimit="10"/>
<path d="M18.83 27.7398H14.44C13.98 27.7398 13.61 27.3698 13.61 26.9198C13.61 26.4698 13.98 26.0898 14.44 26.0898H18.83C19.29 26.0898 19.66 26.4598 19.66 26.9198C19.66 27.3798 19.29 27.7398 18.83 27.7398Z" fill="#224390"/>
<path d="M18.83 27.7398H14.44C13.98 27.7398 13.61 27.3698 13.61 26.9198C13.61 26.4698 13.98 26.0898 14.44 26.0898H18.83C19.29 26.0898 19.66 26.4598 19.66 26.9198C19.66 27.3798 19.29 27.7398 18.83 27.7398Z" stroke="#224390" stroke-width="0.3" stroke-miterlimit="10"/>
<path d="M33.73 27.7398H29.34C28.88 27.7398 28.51 27.3698 28.51 26.9198C28.51 26.4698 28.88 26.0898 29.34 26.0898H33.73C34.19 26.0898 34.55 26.4598 34.55 26.9198C34.55 27.3798 34.18 27.7398 33.73 27.7398Z" fill="#224390"/>
<path d="M33.73 27.7398H29.34C28.88 27.7398 28.51 27.3698 28.51 26.9198C28.51 26.4698 28.88 26.0898 29.34 26.0898H33.73C34.19 26.0898 34.55 26.4598 34.55 26.9198C34.55 27.3798 34.18 27.7398 33.73 27.7398Z" stroke="#224390" stroke-width="0.3" stroke-miterlimit="10"/>
<path d="M28.34 51.5099H19.82C18.82 51.5099 18 50.6899 18 49.6899V31.1399C17.49 31.3999 16.91 31.5099 16.33 31.4599C14.8 31.3099 13.6 29.9499 13.6 28.3599V17.3499C13.6 14.4699 15.94 12.1299 18.82 12.1299H29.33C32.21 12.1299 34.55 14.4699 34.55 17.3499V28.3599C34.55 29.9499 33.35 31.3199 31.82 31.4599C31.24 31.5199 30.66 31.3999 30.15 31.1399V49.6899C30.15 50.6899 29.33 51.5099 28.33 51.5099M19.64 28.4499V49.6899C19.64 49.7799 19.71 49.8599 19.81 49.8599H28.33C28.42 49.8599 28.5 49.7799 28.5 49.6899V28.4499C28.5 27.9899 28.87 27.6299 29.33 27.6299C29.79 27.6299 30.16 27.9999 30.16 28.4499C30.16 28.8399 30.32 29.1999 30.61 29.4699C30.9 29.7399 31.28 29.8599 31.67 29.8199C32.36 29.7499 32.9 29.1099 32.9 28.3599V17.3499C32.9 15.3799 31.3 13.7799 29.33 13.7799H18.82C16.85 13.7799 15.25 15.3799 15.25 17.3499V28.3599C15.25 29.1099 15.79 29.7499 16.48 29.8199C16.87 29.8599 17.25 29.7299 17.54 29.4699C17.83 29.2099 17.99 28.8499 17.99 28.4499C17.99 27.9899 18.36 27.6299 18.81 27.6299C19.26 27.6299 19.64 27.9999 19.64 28.4499Z" fill="#224390"/>
<path d="M28.34 51.5099H19.82C18.82 51.5099 18 50.6899 18 49.6899V31.1399C17.49 31.3999 16.91 31.5099 16.33 31.4599C14.8 31.3099 13.6 29.9499 13.6 28.3599V17.3499C13.6 14.4699 15.94 12.1299 18.82 12.1299H29.33C32.21 12.1299 34.55 14.4699 34.55 17.3499V28.3599C34.55 29.9499 33.35 31.3199 31.82 31.4599C31.24 31.5199 30.66 31.3999 30.15 31.1399V49.6899C30.15 50.6899 29.33 51.5099 28.33 51.5099H28.34ZM19.65 28.4499V49.6899C19.65 49.7799 19.72 49.8599 19.82 49.8599H28.34C28.43 49.8599 28.51 49.7799 28.51 49.6899V28.4499C28.51 27.9899 28.88 27.6299 29.34 27.6299C29.8 27.6299 30.17 27.9999 30.17 28.4499C30.17 28.8399 30.33 29.1999 30.62 29.4699C30.91 29.7399 31.29 29.8599 31.68 29.8199C32.37 29.7499 32.91 29.1099 32.91 28.3599V17.3499C32.91 15.3799 31.31 13.7799 29.34 13.7799H18.83C16.86 13.7799 15.26 15.3799 15.26 17.3499V28.3599C15.26 29.1099 15.8 29.7499 16.49 29.8199C16.88 29.8599 17.26 29.7299 17.55 29.4699C17.84 29.2099 18 28.8499 18 28.4499C18 27.9899 18.37 27.6299 18.82 27.6299C19.27 27.6299 19.65 27.9999 19.65 28.4499Z" stroke="#224390" stroke-width="0.3" stroke-miterlimit="10"/>
<path d="M24.08 51.5096C23.62 51.5096 23.25 51.1396 23.25 50.6896V32.1996C23.25 31.7396 23.62 31.3696 24.08 31.3696C24.54 31.3696 24.9 31.7396 24.9 32.1996V50.6896C24.9 51.1496 24.53 51.5096 24.08 51.5096Z" fill="#224390"/>
<path d="M24.08 51.5096C23.62 51.5096 23.25 51.1396 23.25 50.6896V32.1996C23.25 31.7396 23.62 31.3696 24.08 31.3696C24.54 31.3696 24.9 31.7396 24.9 32.1996V50.6896C24.9 51.1496 24.53 51.5096 24.08 51.5096Z" stroke="#224390" stroke-width="0.3" stroke-miterlimit="10"/>
<path d="M43.1 30.8197C42.64 30.8197 42.27 30.4497 42.27 29.9997V20.7397C42.27 20.2797 42.64 19.9097 43.1 19.9097C43.56 19.9097 43.92 20.2797 43.92 20.7397V29.9997C43.92 30.4597 43.55 30.8197 43.1 30.8197Z" fill="#224390"/>
<path d="M43.1 30.8197C42.64 30.8197 42.27 30.4497 42.27 29.9997V20.7397C42.27 20.2797 42.64 19.9097 43.1 19.9097C43.56 19.9097 43.92 20.2797 43.92 20.7397V29.9997C43.92 30.4597 43.55 30.8197 43.1 30.8197Z" stroke="#224390" stroke-width="0.3" stroke-miterlimit="10"/>
<path d="M38.08 14.1799C37.05 14.1799 35.56 13.6999 34.41 11.5299C33.81 10.3899 33.49 9.0399 33.49 7.6299V7.4999C33.49 6.3399 34.11 5.2799 35.11 4.7299C35.79 4.3499 36.88 3.8999 38.18 3.8999C39.25 3.8999 40.39 4.2699 41.47 4.9699C42.37 5.5499 42.91 6.5499 42.91 7.6299C42.91 9.0499 42.59 10.4099 41.97 11.5499C40.78 13.7699 39.25 14.1899 38.17 14.1699C38.14 14.1699 38.1 14.1699 38.07 14.1699M38.18 5.5399C37.24 5.5399 36.42 5.8799 35.91 6.1599C35.44 6.4199 35.14 6.9299 35.14 7.4899V7.6199C35.14 8.7599 35.39 9.8399 35.87 10.7399C36.51 11.9399 37.29 12.5299 38.18 12.5099C39.13 12.5499 39.89 11.9499 40.52 10.7599C41 9.8499 41.26 8.7599 41.26 7.6099C41.26 7.0899 41 6.6199 40.58 6.3399C40.01 5.9699 39.13 5.5299 38.19 5.5299" fill="#224390"/>
<path d="M38.08 14.1799C37.05 14.1799 35.56 13.6999 34.41 11.5299C33.81 10.3899 33.49 9.0399 33.49 7.6299V7.4999C33.49 6.3399 34.11 5.2799 35.11 4.7299C35.79 4.3499 36.88 3.8999 38.18 3.8999C39.25 3.8999 40.39 4.2699 41.47 4.9699C42.37 5.5499 42.91 6.5499 42.91 7.6299C42.91 9.0499 42.59 10.4099 41.97 11.5499C40.78 13.7699 39.25 14.1899 38.17 14.1699C38.14 14.1699 38.1 14.1699 38.07 14.1699L38.08 14.1799ZM38.19 5.5499C37.25 5.5499 36.43 5.8899 35.92 6.1699C35.45 6.4299 35.15 6.9399 35.15 7.4999V7.6299C35.15 8.7699 35.4 9.8499 35.88 10.7499C36.52 11.9499 37.3 12.5399 38.19 12.5199C39.14 12.5599 39.9 11.9599 40.53 10.7699C41.01 9.8599 41.27 8.7699 41.27 7.6199C41.27 7.0999 41.01 6.6299 40.59 6.3499C40.02 5.9799 39.14 5.5399 38.2 5.5399L38.19 5.5499Z" stroke="#224390" stroke-width="0.3" stroke-miterlimit="10"/>
<path d="M47.19 29.38H43.1C42.64 29.38 42.28 29.01 42.28 28.56C42.28 28.11 42.65 27.73 43.1 27.73H47.19C47.65 27.73 48.02 28.1 48.02 28.56C48.02 29.02 47.65 29.38 47.19 29.38Z" fill="#224390"/>
<path d="M47.19 29.38H43.1C42.64 29.38 42.28 29.01 42.28 28.56C42.28 28.11 42.65 27.73 43.1 27.73H47.19C47.65 27.73 48.02 28.1 48.02 28.56C48.02 29.02 47.65 29.38 47.19 29.38Z" stroke="#224390" stroke-width="0.3" stroke-miterlimit="10"/>
<path d="M42.17 51.51H34.24C33.27 51.51 32.49 50.72 32.49 49.76V33.72C32.49 33.26 32.86 32.89 33.32 32.89C33.78 32.89 34.15 33.26 34.15 33.72V49.76C34.15 49.81 34.2 49.86 34.25 49.86H42.18C42.23 49.86 42.28 49.81 42.28 49.76V29.99C42.28 29.53 42.65 29.16 43.11 29.16C43.57 29.16 43.94 29.53 43.94 29.99C43.94 30.34 44.08 30.66 44.34 30.89C44.6 31.12 44.94 31.24 45.28 31.2C45.89 31.14 46.38 30.57 46.38 29.9V19.65C46.38 17.85 44.92 16.39 43.12 16.39H36.71C36.25 16.39 35.88 16.02 35.88 15.56C35.88 15.1 36.25 14.73 36.71 14.73H43.12C45.83 14.73 48.03 16.93 48.03 19.64V29.89C48.03 31.4 46.89 32.69 45.44 32.83C44.92 32.88 44.4 32.79 43.94 32.57V49.74C43.94 50.71 43.15 51.49 42.19 51.49" fill="#224390"/>
<path d="M42.17 51.51H34.24C33.27 51.51 32.49 50.72 32.49 49.76V33.72C32.49 33.26 32.86 32.89 33.32 32.89C33.78 32.89 34.15 33.26 34.15 33.72V49.76C34.15 49.81 34.2 49.86 34.25 49.86H42.18C42.23 49.86 42.28 49.81 42.28 49.76V29.99C42.28 29.53 42.65 29.16 43.11 29.16C43.57 29.16 43.94 29.53 43.94 29.99C43.94 30.34 44.08 30.66 44.34 30.89C44.6 31.12 44.94 31.24 45.28 31.2C45.89 31.14 46.38 30.57 46.38 29.9V19.65C46.38 17.85 44.92 16.39 43.12 16.39H36.71C36.25 16.39 35.88 16.02 35.88 15.56C35.88 15.1 36.25 14.73 36.71 14.73H43.12C45.83 14.73 48.03 16.93 48.03 19.64V29.89C48.03 31.4 46.89 32.69 45.44 32.83C44.92 32.88 44.4 32.79 43.94 32.57V49.74C43.94 50.71 43.15 51.49 42.19 51.49L42.17 51.51Z" stroke="#224390" stroke-width="0.3" stroke-miterlimit="10"/>
<path d="M38.21 51.5096C37.75 51.5096 37.38 51.1396 37.38 50.6896V33.4697C37.38 33.0097 37.75 32.6396 38.21 32.6396C38.67 32.6396 39.03 33.0097 39.03 33.4697V50.6896C39.03 51.1496 38.66 51.5096 38.21 51.5096Z" fill="#224390"/>
<path d="M38.21 51.5096C37.75 51.5096 37.38 51.1396 37.38 50.6896V33.4697C37.38 33.0097 37.75 32.6396 38.21 32.6396C38.67 32.6396 39.03 33.0097 39.03 33.4697V50.6896C39.03 51.1496 38.66 51.5096 38.21 51.5096Z" stroke="#224390" stroke-width="0.3" stroke-miterlimit="10"/>
<path d="M5.06 30.8197C4.6 30.8197 4.23 30.4497 4.23 29.9997V20.7397C4.23 20.2797 4.6 19.9097 5.06 19.9097C5.52 19.9097 5.89 20.2797 5.89 20.7397V29.9997C5.89 30.4597 5.52 30.8197 5.06 30.8197Z" fill="#224390"/>
<path d="M5.06 30.8197C4.6 30.8197 4.23 30.4497 4.23 29.9997V20.7397C4.23 20.2797 4.6 19.9097 5.06 19.9097C5.52 19.9097 5.89 20.2797 5.89 20.7397V29.9997C5.89 30.4597 5.52 30.8197 5.06 30.8197Z" stroke="#224390" stroke-width="0.3" stroke-miterlimit="10"/>
<path d="M10.04 14.1799C10.04 14.1799 9.97 14.1799 9.94 14.1799C8.91 14.2099 7.38 13.7799 6.19 11.5599C5.58 10.4099 5.25 9.0599 5.25 7.6299C5.25 6.5499 5.79 5.5599 6.69 4.9699C7.78 4.2699 8.91 3.8999 9.98 3.8999C11.27 3.8999 12.36 4.3499 13.05 4.7299C14.05 5.2799 14.67 6.3399 14.67 7.4999V7.6299C14.67 9.0399 14.35 10.3899 13.75 11.5299C12.6 13.7099 11.12 14.1799 10.04 14.1799ZM9.94 12.5299C10.88 12.5499 11.66 11.9599 12.29 10.7599C12.77 9.8599 13.02 8.7799 13.02 7.6399V7.5099C13.02 6.9599 12.73 6.4499 12.25 6.1899C11.73 5.9099 10.92 5.5699 9.98 5.5699C9.04 5.5699 8.15 6.0099 7.58 6.3799C7.15 6.6599 6.9 7.1299 6.9 7.6499C6.9 8.7999 7.16 9.8899 7.64 10.7999C8.27 11.9899 9.06 12.5799 9.94 12.5499" fill="#224390"/>
<path d="M10.04 14.1799C10.04 14.1799 9.97 14.1799 9.94 14.1799C8.91 14.2099 7.38 13.7799 6.19 11.5599C5.58 10.4099 5.25 9.0599 5.25 7.6299C5.25 6.5499 5.79 5.5599 6.69 4.9699C7.78 4.2699 8.91 3.8999 9.98 3.8999C11.27 3.8999 12.36 4.3499 13.05 4.7299C14.05 5.2799 14.67 6.3399 14.67 7.4999V7.6299C14.67 9.0399 14.35 10.3899 13.75 11.5299C12.6 13.7099 11.12 14.1799 10.04 14.1799ZM9.94 12.5299C10.88 12.5499 11.66 11.9599 12.29 10.7599C12.77 9.8599 13.02 8.7799 13.02 7.6399V7.5099C13.02 6.9599 12.73 6.4499 12.25 6.1899C11.73 5.9099 10.92 5.5699 9.98 5.5699C9.04 5.5699 8.15 6.0099 7.58 6.3799C7.15 6.6599 6.9 7.1299 6.9 7.6499C6.9 8.7999 7.16 9.8899 7.64 10.7999C8.27 11.9899 9.06 12.5799 9.94 12.5499V12.5299Z" stroke="#224390" stroke-width="0.3" stroke-miterlimit="10"/>
<path d="M5.05999 29.38H0.969994C0.509994 29.38 0.149994 29.01 0.149994 28.56C0.149994 28.11 0.519994 27.73 0.969994 27.73H5.05999C5.51999 27.73 5.88999 28.1 5.88999 28.56C5.88999 29.02 5.51999 29.38 5.05999 29.38Z" fill="#224390"/>
<path d="M5.05999 29.38H0.969994C0.509994 29.38 0.149994 29.01 0.149994 28.56C0.149994 28.11 0.519994 27.73 0.969994 27.73H5.05999C5.51999 27.73 5.88999 28.1 5.88999 28.56C5.88999 29.02 5.51999 29.38 5.05999 29.38Z" stroke="#224390" stroke-width="0.3" stroke-miterlimit="10"/>
<path d="M13.92 51.51H5.98999C5.01999 51.51 4.23999 50.72 4.23999 49.76V32.59C3.77999 32.81 3.25999 32.9 2.73999 32.85C1.28999 32.71 0.149994 31.42 0.149994 29.91V19.66C0.149994 16.95 2.34999 14.75 5.05999 14.75H11.47C11.93 14.75 12.3 15.12 12.3 15.58C12.3 16.04 11.93 16.41 11.47 16.41H5.05999C3.25999 16.41 1.79999 17.87 1.79999 19.67V29.92C1.79999 30.59 2.27999 31.16 2.89999 31.22C3.24999 31.26 3.57999 31.14 3.83999 30.91C4.09999 30.68 4.23999 30.36 4.23999 30.01C4.23999 29.55 4.60999 29.18 5.05999 29.18C5.50999 29.18 5.88999 29.55 5.88999 30.01V49.78C5.88999 49.83 5.92999 49.88 5.98999 49.88H13.92C13.97 49.88 14.02 49.83 14.02 49.78V33.74C14.02 33.28 14.39 32.91 14.85 32.91C15.31 32.91 15.68 33.28 15.68 33.74V49.78C15.68 50.75 14.89 51.53 13.93 51.53" fill="#224390"/>
<path d="M13.92 51.51H5.98999C5.01999 51.51 4.23999 50.72 4.23999 49.76V32.59C3.77999 32.81 3.25999 32.9 2.73999 32.85C1.28999 32.71 0.149994 31.42 0.149994 29.91V19.66C0.149994 16.95 2.34999 14.75 5.05999 14.75H11.47C11.93 14.75 12.3 15.12 12.3 15.58C12.3 16.04 11.93 16.41 11.47 16.41H5.05999C3.25999 16.41 1.79999 17.87 1.79999 19.67V29.92C1.79999 30.59 2.27999 31.16 2.89999 31.22C3.24999 31.26 3.57999 31.14 3.83999 30.91C4.09999 30.68 4.23999 30.36 4.23999 30.01C4.23999 29.55 4.60999 29.18 5.05999 29.18C5.50999 29.18 5.88999 29.55 5.88999 30.01V49.78C5.88999 49.83 5.92999 49.88 5.98999 49.88H13.92C13.97 49.88 14.02 49.83 14.02 49.78V33.74C14.02 33.28 14.39 32.91 14.85 32.91C15.31 32.91 15.68 33.28 15.68 33.74V49.78C15.68 50.75 14.89 51.53 13.93 51.53L13.92 51.51Z" stroke="#224390" stroke-width="0.3" stroke-miterlimit="10"/>
<path d="M9.96 51.5096C9.5 51.5096 9.13 51.1396 9.13 50.6896V33.4697C9.13 33.0097 9.5 32.6396 9.96 32.6396C10.42 32.6396 10.79 33.0097 10.79 33.4697V50.6896C10.79 51.1496 10.42 51.5096 9.96 51.5096Z" fill="#224390"/>
<path d="M9.96 51.5096C9.5 51.5096 9.13 51.1396 9.13 50.6896V33.4697C9.13 33.0097 9.5 32.6396 9.96 32.6396C10.42 32.6396 10.79 33.0097 10.79 33.4697V50.6896C10.79 51.1496 10.42 51.5096 9.96 51.5096Z" stroke="#224390" stroke-width="0.3" stroke-miterlimit="10"/>
<path d="M45.14 51.5099H3.02C2.56 51.5099 2.19 51.1399 2.19 50.6899C2.19 50.2399 2.56 49.8599 3.02 49.8599H45.14C45.6 49.8599 45.96 50.2299 45.96 50.6899C45.96 51.1499 45.59 51.5099 45.14 51.5099Z" fill="#224390"/>
<path d="M45.14 51.5099H3.02C2.56 51.5099 2.19 51.1399 2.19 50.6899C2.19 50.2399 2.56 49.8599 3.02 49.8599H45.14C45.6 49.8599 45.96 50.2299 45.96 50.6899C45.96 51.1499 45.59 51.5099 45.14 51.5099Z" stroke="#224390" stroke-width="0.3" stroke-miterlimit="10"/>
</g>
<defs>
<clipPath id="clip0_1038_392">
<rect width="48.16" height="51.32" fill="white" transform="translate(0 0.339844)"/>
</clipPath>
</defs>
</svg>
