<svg width="168" height="168" viewBox="0 0 168 168" fill="none" xmlns="http://www.w3.org/2000/svg">
<circle cx="84" cy="84" r="84" fill="#00B0A8"/>
<path d="M46.7631 28.3244C47.7968 28.3774 48.6384 28.563 49.2878 28.8811C49.4686 28.9644 49.6223 29.0959 49.7326 29.2615C49.8428 29.427 49.9054 29.6203 49.9136 29.8207C49.9218 30.021 49.8752 30.2207 49.779 30.3984C49.6828 30.5762 49.5404 30.7251 49.3673 30.8293L48.3137 31.4455C47.9824 31.6443 47.6245 31.704 47.2402 31.6245C41.1968 30.4714 36.7702 32.2407 33.9606 36.9323C32.2509 39.7553 33.3443 47.6276 31.913 48.7806C31.1973 49.3638 30.4352 49.059 29.6268 47.8662C29.419 47.5801 29.2951 47.2427 29.269 46.8921C28.0894 33.798 33.9208 27.6088 46.7631 28.3244Z" fill="white"/>
<path d="M121.412 27.9467C133.479 28.5033 142.266 34.5666 137.833 48.1047C137.752 48.3474 137.595 48.5581 137.387 48.7067C137.179 48.8553 136.929 48.9341 136.673 48.9319C136.417 48.9297 136.168 48.8466 135.962 48.6944C135.756 48.5423 135.604 48.3289 135.527 48.0848C134.612 45.0432 135.626 41.7631 134.712 39.139C132.472 32.7775 127.601 30.3389 120.1 31.8232C119.847 31.875 119.585 31.8592 119.34 31.7774C119.094 31.6956 118.875 31.5507 118.704 31.3572C118.533 31.1637 118.415 30.9286 118.364 30.6753C118.312 30.4221 118.328 30.1598 118.41 29.9148C118.848 28.5365 119.848 27.8804 121.412 27.9467Z" fill="white"/>
<path d="M36.8435 44.2082C35.2531 39.0594 40.1038 34.3479 45.2924 35.6599C45.6225 35.7373 45.9137 35.931 46.1127 36.2054C46.3118 36.4799 46.4054 36.8168 46.3765 37.1546C46.3475 37.4924 46.1979 37.8086 45.9551 38.0451C45.7122 38.2817 45.3923 38.423 45.0538 38.4431C41.6345 38.6684 39.8454 40.4708 39.6863 43.8504C39.6742 44.1949 39.5399 44.5239 39.3073 44.7784C39.0748 45.0329 38.7593 45.1963 38.4172 45.2393C38.0752 45.2824 37.729 45.2023 37.4406 45.0133C37.1523 44.8244 36.9406 44.539 36.8435 44.2082Z" fill="white"/>
<path d="M112.586 80.9657C118.099 81.4693 123.619 81.5555 129.146 81.2242C130.55 81.1314 131.465 81.6416 131.889 82.7549C131.969 82.9705 131.996 83.2021 131.967 83.4303C131.938 83.6584 131.855 83.8762 131.724 84.0654C131.594 84.2546 131.419 84.4095 131.216 84.517C131.013 84.6245 130.787 84.6816 130.557 84.6832H112.725C112.142 84.6832 111.797 84.9748 111.691 85.5579C109.332 99.5665 101.128 107.936 87.0801 110.666C86.2187 110.838 85.7747 111.362 85.7482 112.236L85.2512 129.969C85.2464 130.125 85.2071 130.278 85.1361 130.417C85.0651 130.556 84.9641 130.677 84.8405 130.772C84.7168 130.867 84.5736 130.934 84.4212 130.967C84.2688 131 84.1109 130.999 83.959 130.963C82.6072 130.645 81.9445 129.638 81.971 127.941C82.0638 122.508 82.0042 117.087 81.7921 111.68C81.7656 111.057 81.4475 110.686 80.8379 110.567C66.9619 107.863 58.8907 99.5334 56.6244 85.5778C56.5184 84.9814 56.1606 84.6832 55.5509 84.6832H37.6989C37.4399 84.6839 37.1874 84.5989 36.9794 84.4411C36.7714 84.2833 36.6192 84.0612 36.5459 83.8085L36.2278 82.735C36.175 82.5563 36.1649 82.3678 36.198 82.1845C36.2312 82.0012 36.3069 81.8282 36.419 81.6794C36.5311 81.5306 36.6765 81.4101 36.8435 81.3276C37.0105 81.2451 37.1946 81.2028 37.3809 81.2043H55.1931C56.1473 81.2043 56.7039 80.7338 56.863 79.7928C59.2088 66.0096 67.2932 57.9781 81.1162 55.6986C81.6463 55.6191 81.9114 55.3143 81.9114 54.7841L81.9313 36.7731C81.9313 36.6034 81.9647 36.4354 82.0296 36.2786C82.0946 36.1219 82.1898 35.9794 82.3097 35.8594C82.4297 35.7394 82.5722 35.6443 82.729 35.5793C82.8857 35.5144 83.0538 35.481 83.2235 35.481H84.3367C85.2114 35.481 85.6554 35.9183 85.6687 36.793L85.9271 54.645C85.9271 55.2546 86.2319 55.6058 86.8416 55.6986C100.678 57.9384 108.908 66.0427 111.532 80.0115C111.651 80.5946 112.003 80.9127 112.586 80.9657ZM80.8975 59.5752C70.7191 61.0065 61.2961 69.515 60.6799 80.0115C60.6675 80.3309 60.7742 80.6452 60.9792 80.893C61.1842 81.1408 61.4726 81.3043 61.7882 81.3515C62.1038 81.3987 62.4238 81.3263 62.6858 81.1483C62.9477 80.9704 63.1327 80.6997 63.2046 80.3892C65.4974 70.7674 71.4812 64.6246 81.156 61.9607C81.6596 61.8149 81.9114 61.4836 81.9114 60.9667C81.9114 60.7944 81.9114 60.6288 81.9114 60.4697C81.9114 59.7806 81.5734 59.4824 80.8975 59.5752ZM107.298 79.9916C107.099 69.1771 96.3639 60.4896 86.3644 59.5553C85.9006 59.5155 85.5958 59.7143 85.45 60.1517C85.3705 60.3637 85.3506 60.589 85.3903 60.8276C85.4296 61.1231 85.5613 61.3999 85.7676 61.6204C85.9739 61.8409 86.2447 61.9944 86.5434 62.0601C96.5627 64.2999 102.586 70.3765 104.614 80.2898C104.669 80.6322 104.854 80.9402 105.131 81.15C105.407 81.3599 105.753 81.4556 106.098 81.4173C106.442 81.379 106.759 81.2096 106.983 80.9442C107.206 80.6789 107.319 80.3378 107.298 79.9916ZM68.7113 81.1844L80.4204 81.2043C81.4144 81.2175 81.9114 80.7205 81.9114 79.7133V67.368C81.9114 66.5728 81.5204 66.2746 80.7385 66.4734C73.8734 68.2758 69.4269 72.5964 67.3992 79.435C67.3409 79.6386 67.3305 79.853 67.3689 80.0613C67.4073 80.2697 67.4934 80.4663 67.6205 80.6357C67.7476 80.8052 67.9122 80.9429 68.1015 81.0381C68.2907 81.1333 68.4994 81.1834 68.7113 81.1844ZM100.897 79.8326C99.2664 73.2921 93.8392 67.5072 87.0006 66.3342C86.2584 66.215 85.8873 66.5264 85.8873 67.2686V79.7133C85.8873 80.7073 86.3843 81.2043 87.3783 81.2043H99.823C99.9904 81.2029 100.155 81.1637 100.305 81.0898C100.456 81.0158 100.587 80.909 100.69 80.7772C100.794 80.6453 100.866 80.4919 100.901 80.3284C100.937 80.1649 100.935 79.9954 100.897 79.8326ZM81.3548 103.807C69.8444 101.024 66.7233 95.796 63.0654 85.717C62.9562 85.3801 62.724 85.1102 62.4177 84.9638C62.1114 84.8175 61.7548 84.8062 61.4229 84.9323C61.0909 85.0584 60.8094 85.3121 60.6375 85.64C60.4656 85.968 60.4166 86.3447 60.501 86.6911C62.9263 97.5852 69.639 104.258 80.6391 106.71C80.776 106.74 80.9178 106.739 81.0542 106.708C81.1905 106.677 81.3177 106.616 81.4266 106.53C81.5354 106.444 81.6229 106.336 81.6828 106.212C81.7426 106.088 81.7732 105.953 81.7722 105.815V104.344C81.7718 104.219 81.7303 104.097 81.6545 104C81.5787 103.902 81.473 103.834 81.3548 103.807ZM105.608 84.5441C103.203 88.023 103.063 92.5556 100.499 95.5972C96.9471 99.8382 92.3217 102.568 86.6229 103.788C86.3176 103.865 86.0512 104.051 85.8737 104.312C85.6961 104.572 85.6197 104.888 85.6588 105.2C85.6978 105.513 85.8497 105.8 86.0858 106.009C86.3219 106.217 86.626 106.332 86.941 106.332C97.5368 106.054 107.139 95.955 107.278 85.0808C107.283 84.8835 107.223 84.69 107.109 84.5292C106.995 84.3683 106.831 84.2488 106.644 84.1884C106.456 84.128 106.253 84.13 106.067 84.1941C105.88 84.2582 105.719 84.381 105.608 84.5441ZM67.6179 85.717C68.5125 93.3905 74.0987 97.1478 80.5993 99.9508C80.7323 100.01 80.8781 100.036 81.0234 100.025C81.1687 100.014 81.3089 99.9667 81.4314 99.8877C81.5538 99.8087 81.6546 99.7003 81.7245 99.5725C81.7945 99.4446 81.8314 99.3014 81.8319 99.1556L82.0704 85.8164C82.0731 85.6685 82.0457 85.5217 81.9899 85.3843C81.9342 85.247 81.8511 85.1219 81.7456 85.0164C81.6402 84.9109 81.5144 84.8271 81.3756 84.7699C81.2368 84.7127 81.0878 84.6832 80.9373 84.6832H68.5323C67.8432 84.6832 67.5384 85.0278 67.6179 85.717ZM87.0602 99.6327C93.9784 98.5394 99.5049 92.7743 100.897 85.9754C100.929 85.819 100.926 85.6573 100.888 85.5021C100.851 85.3469 100.778 85.2021 100.678 85.0783C100.577 84.9545 100.449 84.8548 100.305 84.7864C100.16 84.7181 100.003 84.6828 99.8429 84.6832H86.8813C86.2187 84.6832 85.8873 85.0145 85.8873 85.6772V98.6388C85.8873 99.434 86.2783 99.7653 87.0602 99.6327Z" fill="white"/>
<path d="M122.149 35.8785C126.582 33.3736 132.128 39.0394 132.128 42.9755C132.115 44.5129 131.254 45.1358 129.544 44.8442C128.987 44.7515 128.676 44.4268 128.61 43.8701C128.172 40.4906 126.204 38.6616 122.705 38.3833C122.42 38.3648 122.149 38.2544 121.933 38.0685C121.716 37.8826 121.566 37.6309 121.504 37.3505C121.441 37.0701 121.47 36.7757 121.587 36.5108C121.703 36.2458 121.9 36.0242 122.149 35.8785Z" fill="white"/>
<path d="M47.7577 134.442C48.871 134.363 49.5204 134.535 49.706 134.959C49.8385 135.248 49.8989 135.565 49.8822 135.883C49.8654 136.2 49.772 136.509 49.6098 136.783C49.4476 137.056 49.2215 137.286 48.9509 137.454C48.6803 137.621 48.3732 137.72 48.0559 137.742C34.5775 138.776 28.2491 132.693 29.0708 119.493C29.1371 118.419 29.8528 117.909 31.2178 117.962C31.4473 117.968 31.6728 118.023 31.88 118.122C32.0872 118.22 32.2715 118.361 32.4212 118.535C32.5709 118.709 32.6826 118.912 32.7492 119.132C32.8159 119.352 32.836 119.583 32.8082 119.811C31.5757 130.334 36.5588 135.211 47.7577 134.442Z" fill="white"/>
<path d="M119.523 137.444C118.701 137.272 118.416 136.788 118.668 135.993L118.986 134.959C119.211 134.256 119.695 133.899 120.437 133.885C123.658 133.885 127.554 134.422 130.277 132.772C137.712 128.24 132.703 121.401 135.764 118.26C135.972 118.044 136.236 117.891 136.527 117.819C136.817 117.746 137.123 117.757 137.407 117.851C137.692 117.944 137.944 118.116 138.135 118.347C138.327 118.578 138.449 118.857 138.488 119.154C140.197 131.997 132.762 140.287 119.523 137.444Z" fill="white"/>
<path d="M39.8247 122.335C39.9837 126.192 41.7132 127.345 45.3512 127.484C46.2392 127.511 46.5241 127.935 46.2061 128.757L45.5301 130.526C45.2518 131.255 44.7416 131.526 43.9994 131.341C38.8307 130.108 36.1867 126.875 36.0674 121.64C36.0618 121.449 36.1018 121.261 36.184 121.089C36.2662 120.917 36.3883 120.768 36.5401 120.653C36.6919 120.538 36.8689 120.461 37.0564 120.429C37.244 120.397 37.4365 120.41 37.618 120.467L38.612 120.765C39.3807 121.003 39.7849 121.527 39.8247 122.335Z" fill="white"/>
<path d="M130.257 120.427C131.622 121.196 132.166 122.196 131.887 123.429C130.893 127.842 128.19 130.519 123.776 131.46C122.782 131.672 122.173 131.281 121.947 130.287L121.609 128.756C121.397 127.855 121.749 127.411 122.663 127.425C126.652 127.451 128.607 125.456 128.528 121.441C128.525 121.237 128.576 121.036 128.676 120.859C128.776 120.681 128.922 120.534 129.097 120.431C129.273 120.328 129.473 120.273 129.677 120.272C129.88 120.272 130.081 120.325 130.257 120.427Z" fill="white"/>
<path d="M85.3894 134.542C86.834 135.019 87.1786 135.92 86.4232 137.245C86.2111 137.603 86.0521 138.027 85.9461 138.518C85.7816 139.177 85.3916 139.675 84.8562 139.91C84.3208 140.145 83.6807 140.099 83.0674 139.78C82.454 139.462 81.914 138.897 81.5584 138.2C81.2027 137.503 81.0584 136.727 81.1551 136.033C81.4466 134.204 82.8581 133.707 85.3894 134.542Z" fill="#00B1A9"/>
</svg>
