<svg width="168" height="168" viewBox="0 0 168 168" fill="none" xmlns="http://www.w3.org/2000/svg">
<circle cx="84" cy="84" r="84" fill="#00B0A8"/>
<path d="M83.9021 29.0025L83.7217 29.0028C82.9046 29.0042 82.2433 29.6678 82.2448 30.4849L82.2542 35.8977C82.2556 36.7148 82.9192 37.3761 83.7363 37.3746L83.9167 37.3743C84.7338 37.3729 85.3951 36.7093 85.3937 35.8922L85.3842 30.4794C85.3828 29.6623 84.7192 29.001 83.9021 29.0025Z" fill="white"/>
<path d="M74.7452 113.623H93.0947C93.2838 113.624 93.4663 113.554 93.6066 113.427C93.7468 113.3 93.8345 113.126 93.8525 112.937L95.0974 101.047C95.1148 100.839 95.1807 100.637 95.2901 100.456C95.3995 100.275 95.5495 100.119 95.7289 100.001C103.92 94.5879 110.975 87.9843 112.256 77.6999C112.473 75.9317 113.363 75.1137 114.926 75.2461C115.612 75.3062 115.919 75.6791 115.847 76.3647C114.812 85.5906 110.789 92.8919 103.776 98.2686C97.2084 103.303 94.8628 109.04 99.8787 116.329C100.228 116.835 100.372 117.388 100.312 117.989C99.7705 123.547 102.964 132.442 93.4736 131.179C92.9931 131.117 92.5078 131.247 92.1227 131.541C91.7377 131.835 91.484 132.269 91.4167 132.748L90.8213 137.151C90.7251 137.8 90.3522 138.161 89.7026 138.233C84.1815 138.865 75.088 141.138 76.4773 132.875C76.5192 132.623 76.4987 132.365 76.4173 132.124C76.336 131.882 76.1964 131.665 76.0109 131.49C75.8254 131.315 75.5998 131.189 75.3538 131.122C75.1079 131.055 74.8493 131.05 74.6008 131.107C72.3154 131.636 70.2104 131.341 68.2858 130.222C68.0057 130.058 67.7734 129.822 67.6119 129.537C67.4505 129.252 67.3656 128.929 67.3657 128.599V116.402C67.3657 115.848 67.5701 115.391 67.9791 115.03L69.4767 113.695C69.9578 113.25 70.2465 112.703 70.3427 112.053C71.1907 105.937 69.7473 102.87 64.6953 98.9723C40.7165 80.4965 50.9106 45.6198 79.9234 40.3513C80.2193 40.297 80.5248 40.3585 80.7767 40.523C81.0285 40.6876 81.2075 40.9426 81.2766 41.2354L81.5112 42.2999C81.6676 43.0217 81.3849 43.4487 80.6632 43.581C54.0501 48.2541 45.0648 80.3702 67.3657 96.6989C73.2115 100.975 74.5647 105.341 73.5543 112.27C73.5312 112.438 73.5447 112.608 73.5939 112.771C73.6431 112.933 73.7268 113.083 73.8395 113.211C73.9522 113.339 74.0913 113.442 74.2475 113.513C74.4036 113.584 74.5733 113.622 74.7452 113.623ZM96.6671 118.513C96.6671 117.938 96.439 117.388 96.033 116.982C95.6269 116.576 95.0763 116.348 94.502 116.348H73.1033C72.529 116.348 71.9783 116.576 71.5723 116.982C71.1662 117.388 70.9381 117.938 70.9381 118.513V118.693C70.9381 119.267 71.1662 119.818 71.5723 120.224C71.9783 120.63 72.529 120.858 73.1033 120.858H94.502C95.0763 120.858 95.6269 120.63 96.033 120.224C96.439 119.818 96.6671 119.267 96.6671 118.693V118.513ZM96.6311 125.964C96.6311 125.328 96.3782 124.718 95.9282 124.267C95.4782 123.817 94.8678 123.565 94.2314 123.565H73.3378C73.0227 123.565 72.7106 123.627 72.4195 123.747C72.1284 123.868 71.8638 124.045 71.641 124.267C71.4182 124.49 71.2414 124.755 71.1208 125.046C71.0002 125.337 70.9381 125.649 70.9381 125.964V126.109C70.9381 126.424 71.0002 126.736 71.1208 127.027C71.2414 127.318 71.4182 127.583 71.641 127.805C71.8638 128.028 72.1284 128.205 72.4195 128.326C72.7106 128.446 73.0227 128.508 73.3378 128.508H94.2314C94.8678 128.508 95.4782 128.256 95.9282 127.805C96.3782 127.355 96.6311 126.745 96.6311 126.109V125.964ZM87.592 132.418C87.5974 132.107 87.479 131.807 87.2629 131.583C87.0469 131.359 86.7508 131.23 86.4398 131.225L81.172 131.133C80.861 131.128 80.5606 131.246 80.3369 131.462C80.1132 131.678 79.9845 131.974 79.979 132.285L79.9411 134.45C79.9357 134.761 80.0541 135.061 80.2702 135.285C80.4862 135.509 80.7823 135.638 81.0933 135.643L86.3611 135.735C86.6721 135.74 86.9725 135.622 87.1962 135.406C87.4199 135.19 87.5487 134.894 87.5541 134.583L87.592 132.418Z" fill="white"/>
<path d="M86.0562 41.8851C86.5734 40.61 87.5598 40.165 89.0153 40.5499C103.269 44.2487 113.337 49.7698 115.376 65.6113C115.46 66.2609 115.207 66.724 114.618 67.0006C113.776 67.3855 113.084 67.3735 112.543 66.9645C112.194 66.6999 111.972 66.1646 111.875 65.3587C110.089 51.6823 99.4079 45.5838 86.9764 43.5089C86.7989 43.4778 86.6303 43.408 86.483 43.3045C86.3357 43.2011 86.2135 43.0666 86.1253 42.9109C86.0371 42.7552 85.9851 42.5823 85.9731 42.4048C85.9612 42.2273 85.9896 42.0497 86.0562 41.8851Z" fill="white"/>
<path d="M54.3678 45.9716C56.1523 47.5337 58.1256 48.1984 58.7754 47.4561C59.4252 46.7139 58.5054 44.8458 56.721 43.2836C54.9366 41.7215 52.9632 41.0568 52.3134 41.7991C51.6636 42.5413 52.5834 44.4094 54.3678 45.9716Z" fill="white"/>
<path d="M112.651 41.5962C112.888 41.3139 113.222 41.1293 113.588 41.0778C113.953 41.0264 114.325 41.1118 114.631 41.3176C114.938 41.5233 115.157 41.835 115.248 42.1928C115.339 42.5506 115.294 42.9293 115.123 43.2562C114.004 45.5897 112.248 47.1835 109.854 48.0375C109.603 48.1299 109.327 48.1348 109.073 48.0515C108.818 47.9681 108.599 47.8014 108.451 47.5782C108.303 47.355 108.234 47.0883 108.257 46.8214C108.279 46.5544 108.39 46.3027 108.573 46.1069L112.651 41.5962Z" fill="white"/>
<path d="M66.1374 78.0247L61.4463 77.9345C61.2718 77.9322 61.0995 77.8952 60.9394 77.8257C60.7792 77.7562 60.6346 77.6556 60.5137 77.5297C60.3928 77.4038 60.2982 77.2551 60.2353 77.0923C60.1724 76.9295 60.1424 76.7558 60.1472 76.5813L60.3277 68.9131C60.3371 68.5653 60.4819 68.2349 60.7312 67.9923C60.9806 67.7496 61.3149 67.6139 61.6628 67.6141H65.6322C66.0558 67.6121 66.4701 67.4899 66.827 67.2617C67.1839 67.0335 67.4687 66.7087 67.6482 66.3251C67.8278 65.9414 67.8947 65.5147 67.8413 65.0945C67.7878 64.6743 67.6162 64.2779 67.3463 63.9514L64.5677 60.5954C64.352 60.3278 64.2434 59.9902 64.2635 59.6494C64.2835 59.3086 64.4307 58.9894 64.676 58.755L69.8543 53.7392C70.1244 53.4742 70.4848 53.3214 70.863 53.3114C71.2412 53.3013 71.6092 53.4348 71.8931 53.685L75.0145 56.4275C75.3181 56.6977 75.6923 56.8762 76.0934 56.9421C76.4945 57.008 76.906 56.9588 77.2802 56.8C77.6544 56.6413 77.9759 56.3796 78.2072 56.0453C78.4385 55.7111 78.5702 55.3181 78.587 54.9119L78.7674 50.7621C78.7767 50.4699 78.9 50.1925 79.1117 49.9876C79.3234 49.7826 79.6072 49.6658 79.9041 49.6615L87.3918 49.5352C88.1496 49.5232 88.5706 49.896 88.6548 50.6538L89.142 55.3811C89.1771 55.7446 89.3128 56.0912 89.5339 56.382C89.7549 56.6728 90.0526 56.8963 90.3936 57.0274C90.7345 57.1586 91.1052 57.1921 91.4641 57.1244C91.8231 57.0567 92.1561 56.8904 92.4258 56.644L95.8719 53.5768C96.127 53.3479 96.4604 53.2258 96.803 53.2359C97.1455 53.246 97.4711 53.3874 97.7123 53.6309L102.945 58.8633C103.176 59.0924 103.312 59.4012 103.325 59.7286C103.338 60.056 103.228 60.3782 103.017 60.6315L99.8233 64.4024C99.6009 64.6634 99.4559 64.9813 99.4045 65.3203C99.3531 65.6593 99.3974 66.0059 99.5325 66.321C99.6676 66.6362 99.888 66.9073 100.169 67.1039C100.45 67.3005 100.78 67.4147 101.122 67.4336L106.102 67.7223C106.364 67.7359 106.612 67.8492 106.796 68.0396C106.979 68.2301 107.086 68.4839 107.095 68.7507L107.401 76.437C107.437 77.4714 106.938 77.9887 105.904 77.9887H101.7C101.277 77.991 100.863 78.1173 100.511 78.352C100.159 78.5867 99.8832 78.9195 99.7181 79.3092C99.553 79.6989 99.5058 80.1284 99.5822 80.5447C99.6586 80.9609 99.8554 81.3457 100.148 81.6513L103.107 84.7006C103.365 84.9665 103.509 85.3224 103.509 85.6929C103.509 86.0634 103.365 86.4193 103.107 86.6853L97.7303 92.1703C97.4909 92.4095 97.17 92.5485 96.8341 92.5586C96.4981 92.5687 96.173 92.449 95.926 92.2244L92.4438 89.0669C92.1745 88.8224 91.8426 88.6581 91.4849 88.5925C91.1272 88.5268 90.7577 88.5624 90.4176 88.6951C90.0774 88.8278 89.7798 89.0525 89.5578 89.3443C89.3358 89.636 89.1981 89.9835 89.16 90.348L88.6909 95.1834C88.6067 96.0495 88.1316 96.4765 87.2655 96.4645L80.0123 96.3562C79.1343 96.3442 78.6892 95.9051 78.6771 95.0391L78.623 90.9073C78.6189 90.5137 78.5049 90.129 78.2937 89.7968C78.0825 89.4646 77.7826 89.198 77.4279 89.0272C77.0733 88.8565 76.6779 88.7883 76.2865 88.8303C75.895 88.8724 75.5232 89.0231 75.213 89.2654L71.4961 92.1342C70.9428 92.5552 70.4196 92.5191 69.9264 92.0259L64.5677 86.6853C64.3019 86.4209 64.151 86.0625 64.1477 85.6876C64.1443 85.3127 64.2887 84.9517 64.5497 84.6825L67.5808 81.5611C67.8623 81.2675 68.0531 80.8982 68.1298 80.4985C68.2064 80.0987 68.1656 79.6859 68.0124 79.3105C67.8592 78.9352 67.6002 78.6136 67.2672 78.3852C66.9341 78.1568 66.5415 78.0315 66.1374 78.0247ZM68.7175 70.7715H64.8925C64.1347 70.7715 63.7558 71.1444 63.7558 71.8902V73.6945C63.7558 74.4523 64.1347 74.8312 64.8925 74.8312H68.6273C69.1566 74.8312 69.5776 75.0417 69.8903 75.4627C72.7411 79.2156 72.4344 82.4572 68.9701 85.1877C68.8325 85.2946 68.7268 85.4366 68.664 85.5991C68.6012 85.7616 68.5836 85.9385 68.6131 86.1116C68.6426 86.2847 68.718 86.4476 68.8316 86.5834C68.9451 86.7192 69.0926 86.8229 69.2588 86.8837L71.1714 87.5333C71.6886 87.7137 72.0735 87.5573 72.3261 87.0642C72.9997 85.6809 74.0342 84.9953 75.4295 85.0073C80.2529 85.0554 82.412 87.2326 81.9068 91.5388C81.8226 92.2846 82.1474 92.7416 82.8811 92.91L84.4869 93.2709C85.4492 93.4874 85.8822 93.1085 85.786 92.1342C85.3289 87.431 87.464 85.0193 92.1912 84.899C92.7205 84.887 93.1715 85.0735 93.5444 85.4584L95.5111 87.425C96.0885 87.9904 96.7079 88.0445 97.3695 87.5874L98.5603 86.7755C99.3903 86.2222 99.4023 85.6448 98.5964 85.0434C94.7833 82.2287 94.621 79.0231 98.1093 75.4266C98.4942 75.0296 98.9633 74.8312 99.5166 74.8312H102.061C102.576 74.8635 103.084 74.6936 103.476 74.3574C103.869 74.0212 104.114 73.5453 104.161 73.0309C104.208 72.5164 104.053 72.0039 103.728 71.6022C103.403 71.2005 102.934 70.9414 102.421 70.8798C101.591 70.7234 100.659 70.6934 99.6248 70.7896C99.0836 70.8377 98.6144 70.6693 98.2175 70.2844C95.0179 67.2051 94.8315 64.3182 97.6582 61.6239C98.3438 60.9623 98.7167 60.3849 98.7768 59.8917C98.8971 58.9415 98.3558 58.31 97.153 57.9972C96.5876 57.8649 96.1185 58.0213 95.7457 58.4664C92.9911 61.7983 89.8998 61.8223 86.4716 58.5385C86.0627 58.1536 85.8582 57.6845 85.8582 57.1312V54.1541C85.8869 53.6756 85.7244 53.2053 85.4063 52.8466C85.0882 52.488 84.6407 52.2703 84.1622 52.2416C83.6836 52.2129 83.2133 52.3755 82.8547 52.6935C82.496 53.0116 82.2783 53.4591 82.2496 53.9376C82.1414 54.7796 82.1294 55.796 82.2136 56.9869C82.2249 57.1515 82.2019 57.3168 82.146 57.4721C82.09 57.6274 82.0025 57.7693 81.8888 57.889C78.3043 61.7261 74.9784 61.9486 71.9111 58.5566C71.1293 57.6905 70.3233 57.6725 69.4934 58.5024L69.0423 58.9535C68.924 59.0714 68.8319 59.2128 68.7718 59.3685C68.7117 59.5243 68.6851 59.691 68.6936 59.8577C68.7021 60.0244 68.7456 60.1875 68.8212 60.3364C68.8968 60.4852 69.0029 60.6165 69.1325 60.7217C72.4404 63.4281 72.6749 66.5976 69.8362 70.2303C69.5475 70.5911 69.1746 70.7715 68.7175 70.7715Z" fill="white"/>
<path d="M92.3875 72.8827C92.3875 75.1749 91.477 77.3731 89.8562 78.9939C88.2354 80.6147 86.0371 81.5252 83.745 81.5252C81.4529 81.5252 79.2546 80.6147 77.6339 78.9939C76.0131 77.3731 75.1025 75.1749 75.1025 72.8827C75.1025 71.7478 75.326 70.6239 75.7604 69.5754C76.1947 68.5268 76.8313 67.5741 77.6339 66.7716C78.4364 65.969 79.3891 65.3324 80.4377 64.8981C81.4862 64.4638 82.61 64.2402 83.745 64.2402C84.8799 64.2402 86.0038 64.4638 87.0524 64.8981C88.1009 65.3324 89.0537 65.969 89.8562 66.7716C90.6587 67.5741 91.2953 68.5268 91.7296 69.5754C92.1639 70.6239 92.3875 71.7478 92.3875 72.8827ZM88.9594 72.8466C88.9594 71.4637 88.41 70.1374 87.4321 69.1595C86.4542 68.1816 85.1279 67.6323 83.745 67.6323C82.3621 67.6323 81.0358 68.1816 80.0579 69.1595C79.08 70.1374 78.5307 71.4637 78.5307 72.8466C78.5307 74.2296 79.08 75.5559 80.0579 76.5338C81.0358 77.5116 82.3621 78.061 83.745 78.061C85.1279 78.061 86.4542 77.5116 87.4321 76.5338C88.41 75.5559 88.9594 74.2296 88.9594 72.8466Z" fill="white"/>
<path d="M114.401 72.7004C115.595 72.7609 116.596 72.1564 116.637 71.3503C116.678 70.5442 115.743 69.8417 114.549 69.7812C113.355 69.7207 112.353 70.3251 112.313 71.1312C112.272 71.9373 113.207 72.6399 114.401 72.7004Z" fill="#00B1A9"/>
<path d="M43.3143 74.3982L41.2755 74.3621C40.8615 74.3621 40.4663 74.1977 40.177 73.905C39.8876 73.6123 39.7277 73.2153 39.7325 72.8014C39.7373 72.3875 39.9064 71.9905 40.2025 71.6978C40.4986 71.4051 40.8975 71.2407 41.3115 71.2407L47.2296 71.2046C48.0235 71.2046 48.3122 71.5835 48.0956 72.3413L47.41 74.7951C47.1574 75.7093 46.6221 75.9258 45.8042 75.4446L44.7758 74.8312C44.3187 74.5666 43.8315 74.4222 43.3143 74.3982Z" fill="white"/>
<path d="M121.076 75.2104C120.625 75.3688 120.16 75.3348 119.78 75.1157C119.4 74.8966 119.135 74.5098 119.043 74.0382C118.951 73.5665 119.039 73.0474 119.287 72.5921C119.536 72.1367 119.925 71.7813 120.373 71.6018C123.151 70.5193 125.611 70.7057 127.752 72.1611C127.966 72.3076 128.126 72.5212 128.208 72.7681C128.289 73.015 128.288 73.2814 128.203 73.5252C128.118 73.769 127.955 73.9765 127.74 74.115C127.524 74.2535 127.268 74.3151 127.012 74.2902C125.076 74.1338 123.097 74.4406 121.076 75.2104Z" fill="white"/>
<path d="M56.6317 98.0564L52.4297 102.016C51.9293 102.488 51.9059 103.276 52.3775 103.776L52.8477 104.275C53.3193 104.775 54.1072 104.799 54.6076 104.327L58.8095 100.367C59.3099 99.8959 59.3333 99.108 58.8617 98.6076L58.3915 98.1086C57.92 97.6082 57.1321 97.5848 56.6317 98.0564Z" fill="white"/>
</svg>
