<svg width="168" height="168" viewBox="0 0 168 168" fill="none" xmlns="http://www.w3.org/2000/svg">
<circle cx="84" cy="84" r="84" fill="#00B0A8"/>
<path d="M93.2085 79.631C95.2939 80.3204 95.7247 81.9921 94.7423 83.9052C92.2146 88.8228 90.4797 91.9193 89.5375 93.1946C88.2392 94.9526 86.6823 95.0847 84.8669 93.591C84.3039 93.1315 83.7639 93.1544 83.2469 93.66C79.9493 96.992 76.0371 99.2555 71.5101 100.45C71.2795 100.512 71.0719 100.639 70.9127 100.816C70.7534 100.994 70.6496 101.214 70.6139 101.45L70.1141 104.466C70.0571 104.824 69.8753 105.15 69.6008 105.387C69.3264 105.623 68.977 105.755 68.6146 105.759C65.1332 105.81 53.362 107.775 54.2582 101.743C54.3011 101.459 54.2366 101.169 54.0772 100.93C53.9179 100.691 53.6752 100.52 53.3965 100.45C48.904 99.29 44.9343 97.1529 41.4873 94.0391C40.9588 93.5566 40.3671 93.4417 39.7122 93.6944L37.3165 94.5734C37.0142 94.6889 36.6799 94.6915 36.3735 94.581C36.0671 94.4705 35.8088 94.2539 35.6448 93.9702L29.1818 82.7677C29.0158 82.4845 28.9608 82.1502 29.0278 81.831C29.0949 81.5118 29.279 81.231 29.5438 81.0442L31.991 79.2518C32.1534 79.1341 32.2764 78.9692 32.344 78.7787C32.4116 78.5881 32.4208 78.3807 32.3702 78.1833C31.1638 73.4725 31.1466 68.7445 32.3185 63.9992C32.4449 63.4821 32.2956 63.0628 31.8704 62.741L29.5782 61.0003C29.3344 60.8178 29.1651 60.553 29.1017 60.255C29.0383 59.9571 29.0852 59.6463 29.2335 59.3803L35.0588 49.005C35.438 48.3271 36.0068 48.0342 36.7651 48.1261L40.2465 48.5052C40.775 48.5742 41.2345 48.4248 41.6252 48.0571C44.9228 45.0009 48.7259 42.8523 53.0346 41.6114C53.4712 41.485 53.7527 41.2035 53.879 40.7669L54.6891 37.8198C54.8614 37.1878 55.2751 36.8719 55.93 36.8719L68.5629 36.734C68.7981 36.7313 69.0314 36.7769 69.2484 36.8678C69.4653 36.9587 69.6614 37.093 69.8244 37.2626C69.9875 37.4321 70.1142 37.6332 70.1966 37.8535C70.279 38.0738 70.3154 38.3087 70.3037 38.5436C70.1658 40.8875 71.2631 42.0652 73.5955 42.0767C73.9919 42.0776 74.3725 42.2249 74.6644 42.4907C74.9563 42.7564 75.139 43.1217 75.1774 43.5167C75.2158 43.9117 75.1073 44.3085 74.8727 44.6311C74.638 44.9538 74.2937 45.1795 73.9057 45.2651C70.1256 46.0579 67.6093 44.7251 66.3569 41.2667C66.1271 40.6233 65.6733 40.3016 64.9954 40.3016L59.1356 40.2499C58.5151 40.2499 58.1417 40.5543 58.0154 41.1633C57.0157 45.9028 52.2245 45.403 49.4842 47.0058C46.7382 48.6144 44.2506 50.5274 42.0216 52.745C41.6195 53.1586 41.1369 53.2907 40.5739 53.1414L38.23 52.5037C37.667 52.3543 37.2476 52.5382 36.9719 53.0552L33.9386 58.6392C33.6398 59.2022 33.7432 59.679 34.2488 60.0697L36.0239 61.414C36.215 61.5649 36.3555 61.7697 36.4264 62.0009C36.4972 62.2321 36.4952 62.4784 36.4204 62.7066C34.7084 67.7046 34.5762 72.7142 36.0239 77.7352C36.6214 79.8148 36.0355 81.4004 34.266 82.4919C34.0262 82.6399 33.8537 82.875 33.7859 83.1461C33.7182 83.4173 33.7606 83.7025 33.9041 83.9397L37.2131 89.3858C37.5234 89.8913 37.9715 90.0752 38.5574 89.9373L40.8669 89.3513C41.1243 89.2825 41.3962 89.2828 41.6561 89.3523C41.9159 89.4218 42.1547 89.5581 42.3491 89.7477C46.2786 93.6542 50.9204 96.3601 56.2746 97.8652C56.8721 98.0376 57.2456 98.4225 57.3949 99.02L57.9464 101.243C58.1302 101.967 58.5956 102.329 59.3425 102.329H65.5641C66.4259 102.329 66.8567 101.898 66.8567 101.036V99.3646C66.8569 99.0783 66.9496 98.8003 67.1208 98.5731C67.292 98.3459 67.5322 98.182 67.8046 98.1065C73.0324 96.6014 77.6571 94.0679 81.6785 90.506C83.1779 89.179 84.281 89.0066 85.9355 90.0235C86.1406 90.1422 86.3829 90.1781 86.6113 90.1234C86.8396 90.0687 87.0361 89.9278 87.1591 89.7305L90.6405 84.1637C90.9392 83.6926 90.9105 83.2445 90.5543 82.8194L88.7275 80.6995C88.5486 80.4935 88.426 80.2441 88.3717 79.9754C88.3173 79.7068 88.333 79.4278 88.4173 79.1657C90.2441 73.6276 90.1924 68.124 88.2622 62.6549C88.1726 62.3915 88.1695 62.1075 88.2535 61.8461C88.3376 61.5847 88.504 61.3603 88.7275 61.2072L90.4509 60.0352C90.6771 59.8748 90.8358 59.6363 90.8963 59.3657C90.9568 59.0951 90.9148 58.8117 90.7784 58.5703L87.7451 53.3482C87.612 53.1143 87.4063 52.9295 87.1581 52.8209C86.91 52.7124 86.6325 52.6858 86.3663 52.745C83.0113 53.5148 80.8053 52.2567 79.7482 48.9706C79.6941 48.7897 79.6941 48.5968 79.7485 48.4159C79.8028 48.235 79.909 48.0741 80.054 47.953C80.1989 47.8319 80.3762 47.756 80.5639 47.7347C80.7516 47.7134 80.9413 47.7476 81.1097 47.8331C83.2239 48.9361 85.338 48.9706 87.4521 47.9365C87.791 47.7671 88.1832 47.7371 88.5463 47.8528C88.9095 47.9684 89.2153 48.2208 89.3996 48.557L95.3283 59.2769C95.696 59.9318 95.6041 60.5178 95.0526 61.0348L93.2085 62.7583C92.7029 63.2294 92.5306 63.8039 92.6914 64.4817C93.7944 69.1351 93.7543 73.7942 92.5708 78.459C92.5101 78.6988 92.542 78.9526 92.6602 79.1699C92.7784 79.3871 92.9742 79.5518 93.2085 79.631Z" fill="white"/>
<path d="M76.938 44.3689C76.9919 44.2984 77.0598 44.2403 77.1371 44.1987C77.2145 44.1571 77.2994 44.1328 77.3861 44.1276C78.4891 44.0586 79.1727 44.6676 79.437 45.9544C79.8966 48.1375 79.213 49.2348 77.3861 49.2462C77.0052 49.2537 76.6304 49.1534 76.3043 48.9567C75.9782 48.7601 75.714 48.4749 75.5416 48.1338C75.3692 47.7926 75.2956 47.4091 75.3292 47.0269C75.3628 46.6446 75.5022 46.2791 75.7316 45.9717L76.938 44.3689Z" fill="#00B1A9"/>
<path d="M85.2976 71.1342C85.2976 77.2043 82.8862 83.0259 78.594 87.3181C74.3017 91.6104 68.4802 94.0218 62.41 94.0218C59.4044 94.0218 56.4282 93.4298 53.6513 92.2795C50.8745 91.1293 48.3514 89.4434 46.2261 87.3181C44.1008 85.1928 42.4149 82.6697 41.2646 79.8929C40.1144 77.116 39.5225 74.1398 39.5225 71.1342C39.5225 68.1285 40.1144 65.1523 41.2646 62.3755C42.4149 59.5986 44.1008 57.0755 46.2261 54.9502C48.3514 52.8249 50.8745 51.139 53.6513 49.9888C56.4282 48.8386 59.4044 48.2466 62.41 48.2466C68.4802 48.2466 74.3017 50.6579 78.594 54.9502C82.8862 59.2425 85.2976 65.064 85.2976 71.1342ZM81.5233 71.0997C81.5233 66.0214 79.5059 61.1511 75.915 57.5602C72.3241 53.9694 67.4538 51.952 62.3755 51.952C57.2973 51.952 52.427 53.9694 48.8361 57.5602C45.2452 61.1511 43.2279 66.0214 43.2279 71.0997C43.2279 76.178 45.2452 81.0483 48.8361 84.6391C52.427 88.23 57.2973 90.2474 62.3755 90.2474C67.4538 90.2474 72.3241 88.23 75.915 84.6391C79.5059 81.0483 81.5233 76.178 81.5233 71.0997Z" fill="white"/>
<path d="M64.5132 58.7251C67.5235 59.449 69.4193 60.9369 70.2006 63.1889C70.9015 65.2226 70.3615 66.5497 68.5806 67.1701C68.4982 67.1968 68.4109 67.205 68.3253 67.194C68.2396 67.1829 68.1579 67.153 68.0864 67.1064C68.0149 67.0599 67.9555 66.9979 67.9127 66.9254C67.8699 66.8528 67.8449 66.7714 67.8395 66.6876C67.6556 64.47 66.6618 62.8442 64.8579 61.8101C64.7105 61.7251 64.5433 61.6805 64.3731 61.6808C64.203 61.6812 64.0359 61.7266 63.8889 61.8123C63.742 61.898 63.6203 62.0211 63.5362 62.169C63.4521 62.317 63.4086 62.4845 63.4102 62.6547V69.1521C63.4091 69.4248 63.5033 69.6893 63.6763 69.9001C63.8493 70.1109 64.0904 70.2547 64.358 70.3068C72.7168 72.0648 72.7686 82.6296 64.134 83.8532C63.932 83.8824 63.7473 83.9822 63.6142 84.1343C63.4811 84.2864 63.4086 84.4805 63.4102 84.6805C63.3872 85.6686 62.9793 86.3465 62.1865 86.7142C62.0103 86.7938 61.818 86.8311 61.6248 86.8232C61.4316 86.8153 61.2429 86.7624 61.0739 86.6686C60.9048 86.5749 60.7599 86.4429 60.6509 86.2832C60.5418 86.1236 60.4716 85.9407 60.4458 85.749L60.3424 85.0597C60.262 84.4162 59.9 84.0198 59.2566 83.8705C54.925 82.9283 52.9315 80.2972 53.2762 75.977C53.3227 75.649 53.4887 75.3497 53.7424 75.1366C53.996 74.9234 54.3194 74.8115 54.6505 74.8222C54.9817 74.8328 55.2972 74.9654 55.5366 75.1945C55.7759 75.4235 55.9223 75.7329 55.9476 76.0632C55.9936 78.1888 56.8955 79.602 58.6534 80.3029C59.607 80.6821 60.0724 80.3604 60.0494 79.3378L59.9288 73.0299C59.9173 72.4669 59.6415 72.0992 59.1015 71.9269C53.259 70.0655 50.4152 64.1885 56.0165 59.8799C57.6193 58.6562 60.239 58.863 61.118 56.3123C61.1842 56.1128 61.3107 55.9397 61.4804 55.8166C61.65 55.6935 61.8544 55.6264 62.0656 55.6246C62.2768 55.6227 62.4846 55.6861 62.6605 55.8061C62.8364 55.9261 62.9718 56.0969 63.0483 56.2951L63.6515 57.9668C63.7198 58.157 63.8348 58.3265 63.9856 58.4592C64.1364 58.5919 64.318 58.6834 64.5132 58.7251ZM60.4114 68.2214V61.8791C60.4114 61.7785 60.3714 61.6821 60.3003 61.611C60.2292 61.5399 60.1328 61.4999 60.0322 61.4999H59.8254C58.9478 61.4999 58.1061 61.8504 57.4855 62.4742C56.8649 63.098 56.5163 63.944 56.5163 64.8262V65.2743C56.5163 66.1565 56.8649 67.0026 57.4855 67.6264C58.1061 68.2501 58.9478 68.6006 59.8254 68.6006H60.0322C60.082 68.6006 60.1313 68.5908 60.1773 68.5717C60.2233 68.5527 60.2651 68.5248 60.3003 68.4895C60.3355 68.4543 60.3634 68.4125 60.3825 68.3665C60.4015 68.3205 60.4114 68.2712 60.4114 68.2214ZM63.324 73.9778L63.4619 79.9065C63.4619 80.0345 63.5127 80.1572 63.6032 80.2477C63.6937 80.3382 63.8165 80.3891 63.9444 80.3891L64.2891 80.3719C65.1018 80.3569 65.8758 80.0435 66.4413 79.5007C67.0068 78.9578 67.3175 78.2298 67.3052 77.4764L67.2707 76.27C67.2647 75.8961 67.1792 75.5272 67.0191 75.1844C66.8591 74.8416 66.6275 74.5317 66.3378 74.2723C66.048 74.013 65.7057 73.8093 65.3305 73.673C64.9554 73.5367 64.5546 73.4705 64.1512 73.478L63.8066 73.4952C63.7432 73.4952 63.6805 73.5077 63.6219 73.532C63.5634 73.5562 63.5102 73.5918 63.4653 73.6366C63.4205 73.6814 63.385 73.7346 63.3607 73.7931C63.3365 73.8517 63.324 73.9144 63.324 73.9778Z" fill="white"/>
<path d="M111.254 106.465C108.53 105.891 106.152 104.65 104.118 102.743C103.682 102.34 103.193 102.254 102.653 102.484L99.6373 103.742C99.3705 103.852 99.0724 103.859 98.8036 103.759C98.5347 103.66 98.3152 103.463 98.1896 103.208L94.0361 94.8836C93.8784 94.5903 93.8067 94.2558 93.8293 93.9184C93.9557 92.0456 94.8346 90.9943 96.4662 90.7645C97.0636 90.6841 97.4026 90.3509 97.483 89.7649L98.6205 81.251C98.6866 80.8174 98.5882 80.3748 98.3447 80.0101L96.7764 77.5455C96.589 77.2572 96.5103 76.9115 96.5545 76.5705C96.5987 76.2294 96.7629 75.9152 97.0177 75.6842L104.273 69.1178C104.442 68.9656 104.642 68.8513 104.858 68.7829C105.075 68.7145 105.304 68.6935 105.53 68.7213C105.755 68.7491 105.972 68.825 106.166 68.944C106.359 69.0629 106.525 69.2221 106.652 69.4108L107.565 70.7895C107.709 71.0069 107.913 71.1789 108.154 71.2857C108.395 71.3924 108.663 71.4295 108.927 71.3928L117.872 70.1174C118.039 70.0959 118.201 70.0372 118.346 69.945C118.492 69.8528 118.618 69.7294 118.716 69.5831L120.543 66.8428C120.704 66.608 120.948 66.4424 121.226 66.3785C121.503 66.3147 121.795 66.3574 122.042 66.4981L131.315 71.7892C131.474 71.8775 131.612 71.9989 131.72 72.1453C131.829 72.2918 131.905 72.46 131.944 72.6389C131.983 72.8179 131.984 73.0035 131.947 73.1838C131.91 73.3641 131.835 73.5348 131.728 73.685L130.401 75.5291C129.976 76.1151 129.988 76.6895 130.436 77.2525C131.998 79.2173 133.032 81.452 133.538 83.9568C133.586 84.2009 133.695 84.4295 133.854 84.6221C134.013 84.8146 134.219 84.965 134.451 85.0598L138.208 86.542C138.488 86.6511 138.718 86.8561 138.857 87.119C138.997 87.3819 139.036 87.6851 138.967 87.9725L136.657 98.0375C136.586 98.3476 136.399 98.6182 136.135 98.792C135.871 98.9657 135.552 99.0289 135.244 98.9682L132.917 98.5028C132.679 98.4548 132.432 98.4658 132.198 98.5348C131.964 98.6039 131.75 98.7289 131.573 98.8992L125.282 104.966C125.137 105.107 125.031 105.283 124.976 105.477C124.922 105.671 124.92 105.876 124.972 106.069C126.61 112.222 116.682 111.101 113.442 110.912C112.994 110.877 112.736 110.636 112.667 110.188L112.219 107.482C112.127 106.919 111.805 106.58 111.254 106.465ZM122.353 102.639C125.512 100.778 128.011 98.2616 129.85 95.0904C130.183 94.5044 130.66 94.3321 131.28 94.5733L132.917 95.1938C133.062 95.2466 133.216 95.2681 133.369 95.2568C133.523 95.2455 133.672 95.2018 133.807 95.1284C133.943 95.0551 134.061 94.9539 134.154 94.8314C134.247 94.709 134.313 94.5682 134.348 94.4182L135.52 89.403C135.556 89.2494 135.557 89.0898 135.522 88.9357C135.487 88.7817 135.417 88.6373 135.318 88.5132C135.218 88.389 135.092 88.2884 134.948 88.2186C134.804 88.1489 134.646 88.1119 134.486 88.1104H132.797C132.383 88.1104 132.084 87.9208 131.901 87.5416L126.696 76.9596C126.579 76.7267 126.523 76.4688 126.532 76.2097C126.541 75.9507 126.615 75.6988 126.747 75.4774L127.437 74.271C127.781 73.662 127.638 73.2081 127.006 72.9094L122.663 70.824C122.429 70.7148 122.162 70.7006 121.92 70.7845C121.678 70.8684 121.48 71.0436 121.37 71.2721L120.474 73.0818C120.344 73.3446 120.131 73.5576 119.866 73.6882C119.602 73.8189 119.301 73.8601 119.009 73.8056C115.194 73.0818 111.604 73.7022 108.237 75.667C108.13 75.7318 108.009 75.7704 107.884 75.7795C107.759 75.7887 107.633 75.7683 107.516 75.7199C107.399 75.6714 107.295 75.5963 107.21 75.5004C107.126 75.4045 107.065 75.2904 107.031 75.1671C106.801 74.3054 106.629 73.8458 106.514 73.7884C105.68 73.3755 104.623 73.2084 103.561 73.3217C102.498 73.435 101.511 73.82 100.803 74.3972C100.095 74.9743 99.7211 75.6997 99.7576 76.4235C99.794 77.1472 100.238 77.8142 100.999 78.2866C101.815 78.7807 102.303 79.3667 102.464 80.0446C102.54 80.3484 102.581 80.6368 102.584 80.8918C102.587 81.1468 102.552 81.363 102.481 81.5267C101.125 84.7783 100.614 88.1678 100.947 91.6952C100.975 91.9812 100.907 92.2679 100.754 92.5088C100.601 92.7497 100.371 92.9306 100.103 93.0222L98.2413 93.6944C97.7702 93.8667 97.6209 94.1884 97.7933 94.6595L99.3271 98.7097C99.5684 99.3416 100.022 99.5886 100.689 99.4507L103.619 98.8303C104.159 98.7154 104.618 98.8533 104.997 99.2439C107.341 101.691 110.196 103.139 113.563 103.587C114.172 103.667 114.551 104.006 114.7 104.604L115.252 106.844C115.424 107.499 115.844 107.775 116.51 107.672L120.819 106.982C121.324 106.902 121.577 106.603 121.577 106.086V103.983C121.577 103.386 121.836 102.938 122.353 102.639Z" fill="white"/>
<path d="M124.005 88.7133C124.005 90.8388 123.16 92.8772 121.657 94.3802C120.155 95.8831 118.116 96.7274 115.991 96.7274C113.865 96.7274 111.827 95.8831 110.324 94.3802C108.821 92.8772 107.977 90.8388 107.977 88.7133C107.977 86.5879 108.821 84.5494 110.324 83.0465C111.827 81.5436 113.865 80.6992 115.991 80.6992C118.116 80.6992 120.155 81.5436 121.657 83.0465C123.16 84.5494 124.005 86.5879 124.005 88.7133ZM120.713 88.6272C120.713 87.3564 120.208 86.1378 119.31 85.2392C118.411 84.3407 117.192 83.8359 115.922 83.8359C115.293 83.8359 114.67 83.9599 114.088 84.2006C113.507 84.4414 112.979 84.7943 112.534 85.2392C112.089 85.6842 111.736 86.2123 111.495 86.7936C111.254 87.3749 111.131 87.998 111.131 88.6272C111.131 89.2564 111.254 89.8794 111.495 90.4607C111.736 91.042 112.089 91.5702 112.534 92.0151C112.979 92.46 113.507 92.8129 114.088 93.0537C114.67 93.2945 115.293 93.4184 115.922 93.4184C117.192 93.4184 118.411 92.9136 119.31 92.0151C120.208 91.1165 120.713 89.8979 120.713 88.6272Z" fill="white"/>
<path d="M93.6555 103.587C94.3449 107.172 97.0163 109.757 100.808 110.05C101.359 110.096 101.687 110.389 101.79 110.929L102.824 116.668C102.939 117.3 102.732 117.788 102.204 118.133C99.0557 120.178 97.9585 123.016 98.9121 126.647C99.0845 127.325 98.8661 127.83 98.2572 128.164L93.0868 131.059C92.5008 131.392 91.9723 131.323 91.5012 130.852C89.0654 128.416 86.2274 128.129 82.9873 129.991C82.5382 130.251 82.0153 130.355 81.5006 130.287C80.986 130.218 80.5086 129.981 80.1436 129.611L76.4554 125.94C76.0418 125.527 75.9326 125.044 76.1279 124.493C77.3458 121.092 76.6564 118.168 74.0597 115.72C73.6346 115.318 73.5312 114.853 73.7495 114.324L76.059 108.775C76.3117 108.166 76.7656 107.89 77.4205 107.947C81.1317 108.223 83.6881 106.689 85.0899 103.346C85.2622 102.944 85.5725 102.743 86.0206 102.743L92.6904 102.777C93.2419 102.777 93.5636 103.047 93.6555 103.587ZM90.4671 107.31C90.1454 106.011 89.2722 105.512 87.8474 105.81C87.6406 105.856 87.5372 105.983 87.5372 106.189C87.5372 106.488 87.5315 106.781 87.52 107.068C87.5085 107.471 87.3189 107.775 86.9513 107.982L78.2305 112.842C77.8744 113.037 77.7824 113.325 77.9548 113.704C79.6323 117.277 80.4136 121.051 80.2987 125.027C80.2757 125.762 80.6262 126.067 81.35 125.94C85.3599 125.239 89.2952 125.59 93.1557 126.992C93.6268 127.164 93.9485 127.015 94.1209 126.544L98.4984 115.048C98.6593 114.623 98.5617 114.273 98.2055 113.997L91.2082 108.464C90.8291 108.166 90.582 107.781 90.4671 107.31Z" fill="white"/>
<path d="M93.9127 117.133C93.9127 118.619 93.3226 120.044 92.2721 121.094C91.2217 122.145 89.797 122.735 88.3115 122.735C86.8259 122.735 85.4012 122.145 84.3508 121.094C83.3003 120.044 82.7102 118.619 82.7102 117.133C82.7102 115.648 83.3003 114.223 84.3508 113.173C85.4012 112.122 86.8259 111.532 88.3115 111.532C89.797 111.532 91.2217 112.122 92.2721 113.173C93.3226 114.223 93.9127 115.648 93.9127 117.133ZM90.7453 116.381C90.6076 115.794 90.2226 115.29 89.6752 114.98C89.1278 114.67 88.4628 114.58 87.8265 114.729C87.1901 114.878 86.6346 115.255 86.282 115.776C85.9294 116.297 85.8087 116.919 85.9465 117.507C86.0843 118.094 86.4692 118.598 87.0166 118.908C87.564 119.218 88.229 119.308 88.8653 119.159C89.5017 119.009 90.0573 118.633 90.4098 118.112C90.7624 117.591 90.8831 116.969 90.7453 116.381Z" fill="white"/>
</svg>
