<svg width="168" height="168" viewBox="0 0 168 168" fill="none" xmlns="http://www.w3.org/2000/svg">
<circle cx="84" cy="84" r="84" fill="#00B0A8"/>
<path d="M65.1327 42.1997C66.4548 42.1997 67.5266 41.1279 67.5266 39.8058C67.5266 38.4837 66.4548 37.4119 65.1327 37.4119C63.8106 37.4119 62.7388 38.4837 62.7388 39.8058C62.7388 41.1279 63.8106 42.1997 65.1327 42.1997Z" fill="#00B1A9"/>
<path d="M99.6338 73.7192C106.833 74.0141 115.021 73.0253 121.3 75.0896C139.601 81.0744 145.048 104.163 131.275 118.197C130.801 118.683 130.581 119.261 130.616 119.932L131.119 128.189C131.144 128.587 131.064 128.984 130.886 129.34C130.708 129.697 130.438 130 130.105 130.218C129.772 130.437 129.387 130.563 128.989 130.585C128.591 130.606 128.195 130.522 127.84 130.34C123.087 127.964 119.409 125.431 113.737 125.431C110.395 125.431 107.047 125.425 103.693 125.414C103.011 125.402 102.565 125.072 102.357 124.425L102.114 123.644C101.848 122.8 102.155 122.378 103.034 122.378H118.941C119.066 122.378 119.185 122.407 119.288 122.465L126.504 126.055C127.43 126.518 127.846 126.229 127.753 125.188L127.164 118.561C127.136 118.303 127.171 118.041 127.264 117.794C127.357 117.547 127.507 117.323 127.701 117.139C139.081 106.332 138.179 86.9897 123.954 79.8427C116.565 76.1305 92.452 75.6621 84.5244 79.2529C60.8977 90.0081 70.5254 122.395 96.5113 122.43C96.8749 122.429 97.2259 122.565 97.4956 122.812C97.7652 123.059 97.9338 123.399 97.9684 123.766C98.0725 124.91 97.2861 125.442 95.6092 125.361C91.8449 125.188 87.6122 125.518 84.1948 123.904C70.7682 117.602 65.6624 106.644 68.8774 91.0316C68.9815 90.5343 68.7733 90.2857 68.2529 90.2857H49.9691C49.7298 90.2858 49.4916 90.3453 49.2752 90.4591L40.1507 95.0908C39.7978 95.2658 39.4049 95.3454 39.0118 95.3214C38.6186 95.2974 38.2392 95.1707 37.9118 94.9542C37.5844 94.7377 37.3206 94.439 37.1471 94.0883C36.9737 93.7376 36.8967 93.3474 36.9241 92.9571L37.4792 84.4744C37.5254 83.9077 37.352 83.4162 36.9588 82.9999C19.2648 64.2304 33.1077 36.9608 58.5038 38.3312C58.8576 38.345 59.197 38.4747 59.4697 38.7004C59.7425 38.9261 59.9333 39.2352 60.013 39.5802C60.279 40.6441 59.8627 41.1703 58.7641 41.1588C35.5363 40.9159 23.6536 63.7967 40.3241 81.6989C40.752 82.1499 40.9659 82.6877 40.9659 83.3122V89.9387C40.9641 90.081 41.0012 90.221 41.0731 90.3437C41.145 90.4664 41.2491 90.5671 41.3741 90.635C41.4991 90.7028 41.6402 90.7352 41.7823 90.7287C41.9243 90.7222 42.062 90.677 42.1803 90.5979L47.8527 86.9897C48.0222 86.8768 48.2275 86.8165 48.4425 86.8163H70.057C70.3388 86.8169 70.6163 86.7475 70.8646 86.6142C71.1129 86.481 71.3242 86.2881 71.4795 86.053C76.7414 78.0849 84.2006 73.9621 93.8572 73.6845C94.4701 73.6614 94.8865 73.3723 95.1062 72.8172C101.976 55.9211 89.0347 41.471 71.8611 41.3669C71.04 41.3669 70.7104 40.9679 70.8723 40.17L71.0285 39.3894C71.1441 38.788 71.5084 38.47 72.1213 38.4353C91.5154 37.4985 104.317 54.0129 98.8184 72.5743C98.7813 72.7059 98.7741 72.8441 98.7971 72.9785C98.8202 73.113 98.873 73.2402 98.9515 73.3505C99.03 73.4608 99.1323 73.5513 99.2505 73.6151C99.3687 73.679 99.4997 73.7146 99.6338 73.7192Z" fill="white"/>
<path d="M75.2423 52.0857L53.4197 52.1238C52.5 52.1254 51.7557 52.8723 51.7573 53.792L51.7575 53.9308C51.7591 54.8505 52.506 55.5948 53.4258 55.5932L75.2483 55.5551C76.1681 55.5535 76.9124 54.8066 76.9108 53.8869L76.9105 53.7481C76.9089 52.8284 76.162 52.0841 75.2423 52.0857Z" fill="white"/>
<path d="M75.1359 62.1298L53.4868 62.1676C52.5863 62.1691 51.8575 62.9005 51.859 63.801L51.8592 63.9051C51.8608 64.8057 52.5921 65.5345 53.4927 65.5329L75.1418 65.4951C76.0424 65.4935 76.7712 64.7622 76.7696 63.8616L76.7694 63.7576C76.7678 62.857 76.0365 62.1282 75.1359 62.1298Z" fill="white"/>
<path d="M64.3673 72.1406H53.4734C52.5728 72.1406 51.8428 72.8707 51.8428 73.7713V73.91C51.8428 74.8106 52.5728 75.5406 53.4734 75.5406H64.3673C65.2679 75.5406 65.9979 74.8106 65.9979 73.91V73.7713C65.9979 72.8707 65.2679 72.1406 64.3673 72.1406Z" fill="white"/>
<path d="M114.901 88.1868H92.3849C91.5802 88.1868 90.9277 88.8392 90.9277 89.6439V89.7133C90.9277 90.5181 91.5802 91.1705 92.3849 91.1705H114.901C115.706 91.1705 116.359 90.5181 116.359 89.7133V89.6439C116.359 88.8392 115.706 88.1868 114.901 88.1868Z" fill="white"/>
<path d="M114.728 98.562L92.7322 98.5236C91.8029 98.5219 91.0482 99.274 91.0466 100.203L91.0465 100.273C91.0449 101.202 91.7969 101.957 92.7262 101.958L114.722 101.997C115.652 101.998 116.406 101.246 116.408 100.317L116.408 100.248C116.41 99.3182 115.658 98.5636 114.728 98.562Z" fill="white"/>
<path d="M114.95 108.969H92.3644C91.5597 108.969 90.9072 109.621 90.9072 110.426V110.495C90.9072 111.3 91.5597 111.952 92.3644 111.952H114.95C115.755 111.952 116.407 111.3 116.407 110.495V110.426C116.407 109.621 115.755 108.969 114.95 108.969Z" fill="white"/>
</svg>
