<svg width="168" height="168" viewBox="0 0 168 168" fill="none" xmlns="http://www.w3.org/2000/svg">
<circle cx="84" cy="84" r="84" fill="#00B0A8"/>
<path d="M112.935 31.8311C113.09 30.4331 113.867 29.9782 115.265 30.4664C115.681 30.5916 116.069 30.8791 116.346 31.2678C116.622 31.6564 116.766 32.1155 116.747 32.5473C116.727 32.979 116.546 33.3493 116.241 33.5792C115.936 33.8092 115.532 33.8806 115.115 33.7783C114.882 33.734 114.666 33.7007 114.466 33.6785C113.335 33.5786 112.824 32.9628 112.935 31.8311Z" fill="white"/>
<path d="M102.908 39.5886C103.764 40.1613 104.847 40.0436 105.328 39.3256C105.808 38.6076 105.505 37.5613 104.649 36.9886C103.794 36.4159 102.71 36.5337 102.23 37.2517C101.749 37.9697 102.053 39.016 102.908 39.5886Z" fill="white"/>
<path d="M126.15 39.4809C126.973 38.8783 127.244 37.8487 126.756 37.1811C126.267 36.5136 125.204 36.4609 124.38 37.0635C123.557 37.6661 123.286 38.6957 123.774 39.3633C124.263 40.0308 125.326 40.0835 126.15 39.4809Z" fill="white"/>
<path d="M121.654 44.4632C121.654 46.37 120.896 48.1988 119.548 49.5471C118.199 50.8955 116.371 51.653 114.464 51.653C112.557 51.653 110.728 50.8955 109.38 49.5471C108.032 48.1988 107.274 46.37 107.274 44.4632C107.274 42.5564 108.032 40.7276 109.38 39.3793C110.728 38.0309 112.557 37.2734 114.464 37.2734C116.371 37.2734 118.199 38.0309 119.548 39.3793C120.896 40.7276 121.654 42.5564 121.654 44.4632ZM118.941 44.3966C118.941 43.2225 118.474 42.0965 117.644 41.2662C116.814 40.436 115.688 39.9696 114.514 39.9696C113.34 39.9696 112.214 40.436 111.383 41.2662C110.553 42.0965 110.087 43.2225 110.087 44.3966C110.087 45.5708 110.553 46.6968 111.383 47.527C112.214 48.3572 113.34 48.8237 114.514 48.8237C115.688 48.8237 116.814 48.3572 117.644 47.527C118.474 46.6968 118.941 45.5708 118.941 44.3966Z" fill="white"/>
<path d="M109.221 112.383L98.5197 112.316C97.8984 112.316 97.3603 112.527 96.9054 112.949L82.5758 126.396C82.2329 126.707 81.7878 126.879 81.3276 126.879H51.0207C49.15 126.879 47.3152 127.41 45.7283 128.41L31.3821 137.497C30.9715 137.752 30.5332 137.791 30.0672 137.614C29.3238 137.303 28.9689 136.898 29.0021 136.399C29.0243 136.11 29.2129 135.844 29.5679 135.6C35.8091 131.239 43.0987 125.364 50.4548 123.5C50.9208 123.378 51.1428 123.079 51.1206 122.602L50.8709 117.759C50.8376 117.204 50.9819 116.699 51.3036 116.244C55.764 109.931 57.8166 102.913 57.4616 95.1908C57.4394 94.636 57.1564 94.2976 56.6128 94.1755C48.258 92.3448 46.8767 91.7956 48.3246 82.9748C49.2344 77.3495 50.1886 71.7297 51.1871 66.1155C51.7364 58.1102 59.8249 54.4654 64.5848 61.4388C64.7382 61.6586 64.9686 61.8121 65.2286 61.8678C65.4886 61.9235 65.7585 61.8772 65.9828 61.7384L66.8649 61.2058C67.4862 60.8286 67.5972 60.3404 67.1978 59.7413C56.9457 44.3798 81.3442 35.7754 84.3067 50.8706C85.1166 54.9758 83.7963 58.5263 80.3456 61.5221C80.2481 61.6083 80.1698 61.7139 80.1157 61.8322C80.0615 61.9506 80.0326 62.0789 80.031 62.209C80.0295 62.3392 80.0552 62.4682 80.1065 62.5878C80.1578 62.7074 80.2336 62.8149 80.329 62.9034L88.4009 70.3262C88.5854 70.4994 88.8199 70.6097 89.071 70.6414C89.3221 70.6731 89.5767 70.6244 89.7984 70.5025C90.0202 70.3805 90.1976 70.1915 90.3053 69.9625C90.413 69.7335 90.4454 69.4763 90.398 69.2277L89.4659 64.1849C89.429 63.9256 89.4874 63.6616 89.6303 63.442C89.7732 63.2225 89.9909 63.0622 90.243 62.991C90.4952 62.9199 90.7646 62.9426 91.0012 63.0551C91.2379 63.1675 91.4257 63.362 91.5298 63.6024L94.0262 69.8768C94.0711 69.9926 94.1474 70.0941 94.2471 70.1703C94.3468 70.2465 94.466 70.2947 94.592 70.3095C101.233 70.9919 103.113 75.6686 98.37 80.728C97.671 81.4825 97.4657 82.359 97.7542 83.3576L104.961 108.072C105.138 108.683 105.543 108.988 106.176 108.988H114.63C114.951 108.987 115.268 108.913 115.556 108.772C115.845 108.631 116.097 108.426 116.294 108.172L121.703 101.166C121.816 101.022 121.958 100.904 122.121 100.821C122.283 100.738 122.462 100.691 122.645 100.685C122.827 100.679 123.009 100.713 123.177 100.784C123.345 100.856 123.495 100.963 123.617 101.099C124.383 101.953 124.305 102.946 123.384 104.078C121.476 106.464 119.568 108.855 117.659 111.251C117.502 111.446 117.307 111.606 117.087 111.724C116.867 111.841 116.625 111.912 116.378 111.934L109.221 112.383ZM81.6937 52.8011C81.6937 50.9605 80.9625 49.1953 79.661 47.8937C78.3595 46.5922 76.5943 45.861 74.7536 45.861C73.8422 45.861 72.9397 46.0405 72.0977 46.3893C71.2557 46.7381 70.4906 47.2493 69.8462 47.8937C69.2017 48.5382 68.6905 49.3033 68.3418 50.1453C67.993 50.9873 67.8135 51.8897 67.8135 52.8011C67.8135 53.7125 67.993 54.615 68.3418 55.457C68.6905 56.299 69.2017 57.0641 69.8462 57.7085C70.4906 58.353 71.2557 58.8642 72.0977 59.213C72.9397 59.5617 73.8422 59.7413 74.7536 59.7413C76.5943 59.7413 78.3595 59.0101 79.661 57.7085C80.9625 56.407 81.6937 54.6418 81.6937 52.8011ZM62.2714 64.7674C62.2714 63.7169 61.8541 62.7094 61.1113 61.9666C60.3684 61.2237 59.3609 60.8064 58.3104 60.8064C57.7902 60.8064 57.2752 60.9089 56.7946 61.1079C56.314 61.307 55.8773 61.5987 55.5095 61.9666C55.1417 62.3344 54.8499 62.771 54.6508 63.2516C54.4518 63.7322 54.3493 64.2473 54.3493 64.7674C54.3493 65.2876 54.4518 65.8027 54.6508 66.2833C54.8499 66.7638 55.1417 67.2005 55.5095 67.5683C55.8773 67.9361 56.314 68.2279 56.7946 68.4269C57.2752 68.626 57.7902 68.7285 58.3104 68.7285C59.3609 68.7285 60.3684 68.3111 61.1113 67.5683C61.8541 66.8255 62.2714 65.818 62.2714 64.7674ZM74.4041 74.1208C76.0129 75.0972 77.4886 76.2178 78.8312 77.4827C79.2924 77.9111 79.891 78.154 80.5121 78.165C85.383 78.2427 90.2482 78.2371 95.1079 78.1484C96.8388 78.1317 97.9373 77.233 97.9373 75.4855C97.9382 75.031 97.7653 74.5928 97.4534 74.2593C97.1415 73.9258 96.7138 73.7217 96.2563 73.6881L87.0028 73.0889C86.7284 73.0728 86.459 73.0012 86.2104 72.8784C85.9618 72.7555 85.739 72.5838 85.5549 72.3733C81.3942 67.6966 74.7536 59.0256 67.6637 64.3514C63.7693 67.2639 62.571 80.3286 61.7388 85.1717C61.6279 85.793 61.8886 86.0815 62.521 86.0371C67.3031 85.7043 71.6359 84.1898 75.5192 81.4936C75.7526 81.3317 75.9462 81.1191 76.0857 80.8717C76.2251 80.6243 76.3067 80.3485 76.3243 80.0651C76.3419 79.7816 76.2951 79.4978 76.1873 79.2351C76.0796 78.9723 75.9138 78.7373 75.7023 78.5478L72.9395 76.1179C72.719 75.9089 72.5824 75.6265 72.5552 75.3239C72.528 75.0212 72.6122 74.7191 72.7919 74.4741C72.9716 74.229 73.2345 74.0579 73.5313 73.9929C73.8281 73.9279 74.1384 73.9733 74.4041 74.1208ZM60.8232 73.8285C60.8912 73.4506 60.8062 73.0611 60.587 72.7458C60.3678 72.4304 60.0324 72.2151 59.6545 72.1471L54.7732 71.2688C54.3953 71.2008 54.0058 71.2858 53.6905 71.5049C53.3752 71.7241 53.1598 72.0596 53.0918 72.4375L50.2389 88.2933C50.1709 88.6712 50.2558 89.0607 50.475 89.376C50.6941 89.6913 51.0296 89.9067 51.4076 89.9747L56.2887 90.8529C56.6667 90.9209 57.0561 90.836 57.3715 90.6169C57.6868 90.3977 57.9022 90.0622 57.9702 89.6843L60.8232 73.8285ZM79.9795 85.3881L79.2805 87.2521C79.1866 87.5019 79.1854 87.7775 79.2767 88.0302C79.3681 88.283 79.5463 88.4966 79.7798 88.6334C82.7756 90.3643 85.921 91.1132 88.1512 93.876C91.2246 97.6706 94.2647 101.543 97.2715 105.493C97.6487 105.981 97.8651 106.53 97.9206 107.14C98.087 108.96 99.1522 109.559 101.116 108.938C101.352 108.86 101.549 108.695 101.664 108.477C101.78 108.259 101.804 108.006 101.732 107.773L94.0095 81.9596C93.936 81.7215 93.7902 81.5128 93.5929 81.3634C93.3956 81.2139 93.1569 81.1313 92.9111 81.1275L81.0613 81.0609C80.3845 81.0609 80.0461 81.3993 80.0461 82.0761V84.9886C80.046 85.121 80.0235 85.2559 79.9795 85.3881ZM64.2019 96.0396C77.0004 97.0215 80.2624 101.931 87.9182 111.085C89.2995 112.766 91.6628 113.365 93.3271 112.033C94.1186 111.398 94.6371 110.483 94.7764 109.478C94.9156 108.472 94.6651 107.451 94.0761 106.624C89.0998 99.6178 85.9044 94.1423 76.601 90.9135C75.9796 90.6916 75.7134 90.2534 75.8021 89.5987L76.3014 86.0371C76.318 85.8956 76.2947 85.7523 76.2343 85.6233C76.1738 85.4943 76.0785 85.3848 75.9592 85.3069C75.8399 85.2291 75.7012 85.1861 75.5588 85.1828C75.4163 85.1795 75.2759 85.216 75.153 85.2882C72.5401 86.9192 61.7222 89.3491 61.3227 89.865C60.7125 90.6417 60.6238 91.8344 61.0565 93.4433C61.2518 94.1461 61.6583 94.7719 62.2208 95.2363C62.7834 95.7006 63.4749 95.981 64.2019 96.0396ZM61.4226 115.845C61.6889 115.345 62.0162 115.162 62.4046 115.295C63.0925 115.528 63.6583 115.351 64.1021 114.763C67.1866 110.68 68.629 106.059 68.4293 100.899C68.4071 100.278 68.0965 99.9063 67.4973 99.7842L61.4059 98.4861C60.8734 98.3751 60.585 98.5915 60.5406 99.1352C60.2743 102.63 60.2077 105.493 58.6433 108.788C56.696 112.849 50.3218 121.22 57.2785 123.8C57.5222 123.888 57.7837 123.919 58.0433 123.891C58.3029 123.862 58.5536 123.774 58.7763 123.634C61.0841 122.125 62.46 119.956 62.9038 117.126C62.9087 117.097 62.9072 117.068 62.8994 117.04C62.8916 117.011 62.8776 116.985 62.8585 116.963C62.8395 116.941 62.8157 116.923 62.7891 116.911C62.7624 116.899 62.7334 116.893 62.7041 116.893C62.4822 116.893 62.2547 116.893 62.0217 116.893C61.2672 116.871 61.0675 116.522 61.4226 115.845ZM71.3085 102.364V106.641C71.3085 107.229 71.181 107.795 70.9258 108.339L64.2852 122.319C63.8858 123.14 64.1465 123.55 65.0674 123.55H79.8797C80.5454 123.55 81.1335 123.328 81.6438 122.885L88.251 117.01C88.7614 116.555 88.7726 116.089 88.2844 115.612C84.1403 111.501 77.9657 101.382 72.2572 101.415C71.6248 101.415 71.3085 101.731 71.3085 102.364Z" fill="white"/>
<path d="M104.664 51.7459C105.465 51.0853 105.712 50.061 105.215 49.4581C104.718 48.8553 103.666 48.9021 102.864 49.5628C102.063 50.2235 101.816 51.2478 102.313 51.8506C102.81 52.4535 103.862 52.4066 104.664 51.7459Z" fill="white"/>
<path d="M124.472 51.6964C125.256 52.3201 126.263 52.3592 126.721 51.7837C127.178 51.2083 126.914 50.2361 126.13 49.6124C125.346 48.9888 124.339 48.9497 123.881 49.5251C123.423 50.1006 123.688 51.0727 124.472 51.6964Z" fill="white"/>
<path d="M112.82 56.8149C112.768 57.9259 113.492 58.8626 114.438 58.9072C115.383 58.9518 116.192 58.0874 116.245 56.9764C116.297 55.8655 115.573 54.9287 114.627 54.8841C113.682 54.8395 112.873 55.7039 112.82 56.8149Z" fill="#F0F2F5"/>
<path d="M127.414 94.1757C129.528 90.0149 133.872 86.936 138.449 89.8485C138.692 90.0124 138.87 90.2569 138.951 90.539C139.032 90.8211 139.012 91.1228 138.892 91.3911C138.773 91.6593 138.563 91.877 138.299 92.0058C138.036 92.1346 137.735 92.1663 137.45 92.0953C133.811 91.1078 131.348 92.2618 130.061 95.5571C130.012 95.6882 129.935 95.8072 129.836 95.9061C129.736 96.0049 129.616 96.0813 129.484 96.1302C129.351 96.179 129.21 96.1992 129.068 96.1893C128.926 96.1795 128.788 96.1398 128.663 96.073L127.864 95.6403C127.231 95.3074 127.082 94.8192 127.414 94.1757Z" fill="white"/>
<path d="M125.216 100.733C124.875 100.78 124.528 100.715 124.228 100.546C123.927 100.378 123.69 100.116 123.552 99.8011C123.064 98.6694 123.225 97.6541 124.035 96.7554C124.251 96.5106 124.528 96.3256 124.836 96.2178C125.145 96.1101 125.477 96.0834 125.799 96.1401C126.121 96.1969 126.423 96.3352 126.677 96.542C126.93 96.7488 127.126 97.0171 127.247 97.3213C128.034 99.2962 127.358 100.434 125.216 100.733Z" fill="#00B1A9"/>
<path d="M45.7901 122.993C46.5907 122.422 47.0192 121.65 46.7469 121.268C46.4747 120.887 45.605 121.04 44.8043 121.611C44.0036 122.182 43.5752 122.955 43.8474 123.336C44.1196 123.718 44.9894 123.564 45.7901 122.993Z" fill="#F0F2F5"/>
</svg>
