<?xml version="1.0" encoding="UTF-8"?>
<svg xmlns="http://www.w3.org/2000/svg" xmlns:xlink="http://www.w3.org/1999/xlink" viewBox="0 0 402.06 107.31">
  <defs>
    <style>
      .cls-1 {
        fill: url(#linear-gradient-38);
      }

      .cls-1, .cls-2, .cls-3, .cls-4, .cls-5, .cls-6, .cls-7, .cls-8, .cls-9, .cls-10, .cls-11, .cls-12, .cls-13, .cls-14, .cls-15, .cls-16, .cls-17, .cls-18, .cls-19, .cls-20, .cls-21, .cls-22, .cls-23, .cls-24, .cls-25, .cls-26, .cls-27, .cls-28, .cls-29, .cls-30, .cls-31, .cls-32, .cls-33, .cls-34, .cls-35, .cls-36, .cls-37, .cls-38, .cls-39, .cls-40, .cls-41, .cls-42, .cls-43, .cls-44, .cls-45, .cls-46, .cls-47, .cls-48, .cls-49, .cls-50, .cls-51, .cls-52, .cls-53, .cls-54 {
        stroke-width: 0px;
      }

      .cls-55 {
        clip-path: url(#clippath-45);
      }

      .cls-2 {
        fill: url(#linear-gradient-12);
      }

      .cls-56 {
        clip-path: url(#clippath-20);
      }

      .cls-57 {
        clip-path: url(#clippath-11);
      }

      .cls-3 {
        fill: url(#linear-gradient-17);
      }

      .cls-58 {
        clip-path: url(#clippath-16);
      }

      .cls-59 {
        clip-path: url(#clippath-59);
      }

      .cls-4 {
        fill: url(#linear-gradient-19);
      }

      .cls-5 {
        fill: url(#linear-gradient-33);
      }

      .cls-6 {
        fill: url(#linear-gradient);
      }

      .cls-60 {
        clip-path: url(#clippath-33);
      }

      .cls-61 {
        opacity: .3;
      }

      .cls-61, .cls-62, .cls-63 {
        mix-blend-mode: screen;
      }

      .cls-64 {
        clip-path: url(#clippath-47);
      }

      .cls-7 {
        fill: url(#linear-gradient-21);
      }

      .cls-65 {
        clip-path: url(#clippath-41);
      }

      .cls-66 {
        clip-path: url(#clippath-32);
      }

      .cls-8 {
        fill: url(#linear-gradient-6);
      }

      .cls-67 {
        clip-path: url(#clippath-2);
      }

      .cls-68 {
        clip-path: url(#clippath-13);
      }

      .cls-69 {
        isolation: isolate;
      }

      .cls-9 {
        fill: url(#linear-gradient-42);
      }

      .cls-70 {
        clip-path: url(#clippath-37);
      }

      .cls-71 {
        clip-path: url(#clippath-46);
      }

      .cls-72 {
        clip-path: url(#clippath-25);
      }

      .cls-73 {
        clip-path: url(#clippath-15);
      }

      .cls-10 {
        fill: url(#linear-gradient-15);
      }

      .cls-74 {
        clip-path: url(#clippath-6);
      }

      .cls-11 {
        fill: url(#linear-gradient-11);
      }

      .cls-75 {
        clip-path: url(#clippath-40);
      }

      .cls-76 {
        clip-path: url(#clippath-26);
      }

      .cls-12 {
        fill: url(#linear-gradient-5);
      }

      .cls-13 {
        fill: none;
      }

      .cls-14 {
        fill: url(#linear-gradient-31);
      }

      .cls-15 {
        fill: url(#linear-gradient-34);
      }

      .cls-77 {
        clip-path: url(#clippath-7);
      }

      .cls-78 {
        clip-path: url(#clippath-21);
      }

      .cls-79 {
        clip-path: url(#clippath-34);
      }

      .cls-80 {
        clip-path: url(#clippath-57);
      }

      .cls-81 {
        clip-path: url(#clippath-4);
      }

      .cls-82 {
        clip-path: url(#clippath-38);
      }

      .cls-16 {
        fill: url(#linear-gradient-41);
      }

      .cls-83 {
        clip-path: url(#clippath-36);
      }

      .cls-84 {
        clip-path: url(#clippath-27);
      }

      .cls-17 {
        fill: url(#linear-gradient-40);
      }

      .cls-85 {
        clip-path: url(#clippath-60);
      }

      .cls-18 {
        fill: url(#linear-gradient-13);
      }

      .cls-19 {
        fill: url(#linear-gradient-23);
      }

      .cls-86 {
        clip-path: url(#clippath-44);
      }

      .cls-20 {
        fill: url(#linear-gradient-25);
      }

      .cls-21 {
        fill: url(#linear-gradient-43);
      }

      .cls-22 {
        fill: #5cf;
      }

      .cls-22, .cls-35 {
        fill-rule: evenodd;
      }

      .cls-23 {
        fill: url(#linear-gradient-16);
      }

      .cls-24 {
        fill: url(#linear-gradient-22);
      }

      .cls-87 {
        clip-path: url(#clippath-12);
      }

      .cls-25 {
        fill: #fff;
      }

      .cls-26 {
        fill: url(#linear-gradient-35);
      }

      .cls-27 {
        fill: url(#linear-gradient-32);
      }

      .cls-28 {
        fill: url(#linear-gradient-20);
      }

      .cls-29 {
        fill: url(#linear-gradient-14);
      }

      .cls-30 {
        fill: url(#linear-gradient-2);
      }

      .cls-88 {
        clip-path: url(#clippath-24);
      }

      .cls-31 {
        fill: url(#linear-gradient-45);
      }

      .cls-89 {
        clip-path: url(#clippath-30);
      }

      .cls-90 {
        clip-path: url(#clippath-22);
      }

      .cls-32 {
        fill: url(#linear-gradient-7);
      }

      .cls-33 {
        fill: url(#radial-gradient-2);
      }

      .cls-34 {
        fill: url(#linear-gradient-39);
      }

      .cls-35 {
        fill: #62b4c2;
      }

      .cls-36 {
        fill: url(#linear-gradient-3);
      }

      .cls-91 {
        clip-path: url(#clippath-9);
      }

      .cls-92 {
        clip-path: url(#clippath-52);
      }

      .cls-37 {
        fill: url(#linear-gradient-9);
      }

      .cls-93 {
        clip-path: url(#clippath-50);
      }

      .cls-38 {
        fill: url(#linear-gradient-27);
      }

      .cls-39 {
        fill: url(#radial-gradient);
      }

      .cls-94 {
        clip-path: url(#clippath-48);
      }

      .cls-95 {
        clip-path: url(#clippath-61);
      }

      .cls-96 {
        clip-path: url(#clippath-39);
      }

      .cls-97 {
        clip-path: url(#clippath-19);
      }

      .cls-98 {
        clip-path: url(#clippath-31);
      }

      .cls-99 {
        clip-path: url(#clippath-54);
      }

      .cls-100 {
        clip-path: url(#clippath-3);
      }

      .cls-40 {
        fill: url(#linear-gradient-36);
      }

      .cls-101 {
        clip-path: url(#clippath-43);
      }

      .cls-41 {
        fill: url(#linear-gradient-8);
      }

      .cls-102 {
        clip-path: url(#clippath-8);
      }

      .cls-42 {
        fill: url(#linear-gradient-24);
      }

      .cls-43 {
        fill: url(#linear-gradient-26);
      }

      .cls-44 {
        fill: url(#linear-gradient-18);
      }

      .cls-45 {
        fill: url(#linear-gradient-30);
      }

      .cls-103 {
        clip-path: url(#clippath-55);
      }

      .cls-104 {
        clip-path: url(#clippath-29);
      }

      .cls-46 {
        fill: url(#linear-gradient-44);
      }

      .cls-105 {
        clip-path: url(#clippath-18);
      }

      .cls-106 {
        clip-path: url(#clippath-14);
      }

      .cls-107 {
        clip-path: url(#clippath-17);
      }

      .cls-47 {
        fill: url(#linear-gradient-29);
      }

      .cls-48 {
        fill: url(#linear-gradient-46);
      }

      .cls-108 {
        clip-path: url(#clippath-5);
      }

      .cls-109 {
        clip-path: url(#clippath-58);
      }

      .cls-110 {
        clip-path: url(#clippath-42);
      }

      .cls-49 {
        fill: url(#linear-gradient-28);
      }

      .cls-50 {
        fill: url(#linear-gradient-10);
      }

      .cls-51 {
        fill: url(#radial-gradient-3);
      }

      .cls-111 {
        clip-path: url(#clippath-10);
      }

      .cls-112 {
        clip-path: url(#clippath-23);
      }

      .cls-113 {
        clip-path: url(#clippath-56);
      }

      .cls-114 {
        clip-path: url(#clippath-53);
      }

      .cls-115 {
        clip-path: url(#clippath-49);
      }

      .cls-52 {
        fill: url(#linear-gradient-4);
      }

      .cls-63 {
        opacity: .5;
      }

      .cls-116 {
        clip-path: url(#clippath-51);
      }

      .cls-53 {
        fill: url(#linear-gradient-37);
      }

      .cls-117 {
        clip-path: url(#clippath-28);
      }

      .cls-54 {
        fill: url(#radial-gradient-4);
      }

      .cls-118 {
        clip-path: url(#clippath-35);
      }
    </style>
    <clipPath id="clippath-2">
      <polygon class="cls-13" points="9.59 30.47 0 53.66 9.59 76.84 156.73 76.84 166.32 53.66 156.73 30.47 9.59 30.47"/>
    </clipPath>
    <linearGradient id="linear-gradient" x1="766.31" y1="7682.23" x2="767.31" y2="7682.23" gradientTransform="translate(-356180.13 35614.58) rotate(-90) scale(46.38)" gradientUnits="userSpaceOnUse">
      <stop offset="0" stop-color="#eeca21"/>
      <stop offset="1" stop-color="#d15f20"/>
    </linearGradient>
    <clipPath id="clippath-3">
      <polygon class="cls-13" points="13.43 35.01 5.73 53.65 5.73 53.66 13.43 72.3 152.89 72.3 160.59 53.66 152.89 35.01 13.43 35.01"/>
    </clipPath>
    <radialGradient id="radial-gradient" cx="574.6" cy="7461.74" fx="574.6" fy="7461.74" r="1" gradientTransform="translate(-16544.13 -180426.59) scale(28.81 24.19)" gradientUnits="userSpaceOnUse">
      <stop offset="0" stop-color="#fff"/>
      <stop offset="1" stop-color="#ff0"/>
    </radialGradient>
    <clipPath id="clippath-4">
      <polygon class="cls-13" points="9.59 30.47 11.51 32.74 154.81 32.74 156.73 30.47 9.59 30.47"/>
    </clipPath>
    <linearGradient id="linear-gradient-2" x1="3362.99" y1="6983.51" x2="3363.99" y2="6983.51" gradientTransform="translate(-15783.4 7673.47) rotate(-90) scale(2.27)" gradientUnits="userSpaceOnUse">
      <stop offset="0" stop-color="#80aeee"/>
      <stop offset="1" stop-color="#4e769f"/>
    </linearGradient>
    <clipPath id="clippath-5">
      <polygon class="cls-13" points="11.51 32.74 13.43 35.01 152.89 35.01 154.81 32.74 154.81 32.74 11.51 32.74"/>
    </clipPath>
    <linearGradient id="linear-gradient-3" x1="3365.41" y1="6982.86" x2="3366.41" y2="6982.86" gradientTransform="translate(-15767.86 7674.46) rotate(-90) scale(2.27)" gradientUnits="userSpaceOnUse">
      <stop offset="0" stop-color="#204270"/>
      <stop offset="1" stop-color="#335d8d"/>
    </linearGradient>
    <clipPath id="clippath-6">
      <polygon class="cls-13" points="13.43 72.3 11.51 74.57 154.81 74.57 152.89 72.3 13.43 72.3"/>
    </clipPath>
    <linearGradient id="linear-gradient-4" x1="3363.01" y1="6983.51" x2="3364.01" y2="6983.51" gradientTransform="translate(-15783.29 7715.29) rotate(-90) scale(2.27)" xlink:href="#linear-gradient-2"/>
    <clipPath id="clippath-7">
      <polygon class="cls-13" points="11.51 74.57 9.59 76.84 156.73 76.84 156.73 76.84 154.81 74.57 11.51 74.57"/>
    </clipPath>
    <linearGradient id="linear-gradient-5" x1="3364.18" y1="6983.19" x2="3365.18" y2="6983.19" gradientTransform="translate(-15775.75 7716.94) rotate(-90) scale(2.27)" xlink:href="#linear-gradient-3"/>
    <clipPath id="clippath-8">
      <polygon class="cls-13" points="0 53.66 6.36 69.04 9.59 76.84 9.59 76.84 11.51 74.57 9.22 69.04 2.86 53.66 0 53.66"/>
    </clipPath>
    <linearGradient id="linear-gradient-6" x1="900.08" y1="7646.23" x2="901.08" y2="7646.23" gradientTransform="translate(-177295.15 20947.83) rotate(-90) scale(23.19)" gradientUnits="userSpaceOnUse">
      <stop offset="0" stop-color="#273f5e"/>
      <stop offset="1" stop-color="#4e6885"/>
    </linearGradient>
    <clipPath id="clippath-9">
      <polygon class="cls-13" points="2.86 53.66 2.86 53.66 9.22 69.04 11.51 74.57 11.51 74.57 13.43 72.3 12.08 69.04 5.72 53.66 2.86 53.66"/>
    </clipPath>
    <linearGradient id="linear-gradient-7" x1="929.12" y1="7638.42" x2="930.12" y2="7638.42" gradientTransform="translate(-159764.64 19509.05) rotate(-90) scale(20.92)" gradientUnits="userSpaceOnUse">
      <stop offset="0" stop-color="#4e6885"/>
      <stop offset="1" stop-color="#273f5e"/>
    </linearGradient>
    <clipPath id="clippath-10">
      <polygon class="cls-13" points="9.59 30.47 6.36 38.27 0 53.66 2.86 53.66 9.22 38.27 11.51 32.74 9.59 30.47 9.59 30.47"/>
    </clipPath>
    <linearGradient id="linear-gradient-8" x1="900.09" y1="7646.23" x2="901.09" y2="7646.23" gradientTransform="translate(-177287.38 20924) rotate(-90) scale(23.19)" gradientUnits="userSpaceOnUse">
      <stop offset="0" stop-color="#4e769f"/>
      <stop offset="1" stop-color="#80aeee"/>
    </linearGradient>
    <clipPath id="clippath-11">
      <polygon class="cls-13" points="9.22 38.27 2.86 53.65 2.86 53.66 5.72 53.66 12.08 38.27 13.43 35.01 11.51 32.74 9.22 38.27"/>
    </clipPath>
    <linearGradient id="linear-gradient-9" x1="929.15" y1="7638.41" x2="930.15" y2="7638.41" gradientTransform="translate(-159749.16 19486.86) rotate(-90) scale(20.91)" xlink:href="#linear-gradient-7"/>
    <clipPath id="clippath-12">
      <polygon class="cls-13" points="163.46 53.66 157.1 69.04 154.81 74.57 156.73 76.84 156.73 76.84 159.96 69.04 166.32 53.66 163.46 53.66"/>
    </clipPath>
    <linearGradient id="linear-gradient-10" x1="900.08" y1="7646.23" x2="901.08" y2="7646.23" gradientTransform="translate(-177140.34 20947.83) rotate(-90) scale(23.19)" gradientUnits="userSpaceOnUse">
      <stop offset="0" stop-color="#80aeee"/>
      <stop offset="1" stop-color="#3a587d"/>
    </linearGradient>
    <clipPath id="clippath-13">
      <polygon class="cls-13" points="152.89 35.01 154.23 38.27 160.59 53.66 163.46 53.66 157.1 38.27 154.81 32.74 152.89 35.01"/>
    </clipPath>
    <linearGradient id="linear-gradient-11" x1="474.65" y1="7131.43" x2="475.65" y2="7131.43" gradientTransform="translate(-4865.11 -75350.42) scale(10.57)" gradientUnits="userSpaceOnUse">
      <stop offset="0" stop-color="#204954"/>
      <stop offset="1" stop-color="#1b3840"/>
    </linearGradient>
    <clipPath id="clippath-14">
      <polygon class="cls-13" points="245.32 30.47 235.74 53.66 245.32 76.84 392.47 76.84 402.06 53.66 392.47 30.47 245.32 30.47"/>
    </clipPath>
    <linearGradient id="linear-gradient-12" x1="766.31" y1="7682.23" x2="767.31" y2="7682.23" gradientTransform="translate(-355944.39 35614.58) rotate(-90) scale(46.38)" gradientUnits="userSpaceOnUse">
      <stop offset="0" stop-color="#6280c2"/>
      <stop offset="1" stop-color="#3b597d"/>
    </linearGradient>
    <clipPath id="clippath-15">
      <polygon class="cls-13" points="249.17 35.01 241.47 53.65 241.47 53.66 249.17 72.3 388.63 72.3 396.33 53.66 388.63 35.01 249.17 35.01"/>
    </clipPath>
    <radialGradient id="radial-gradient-2" cx="603.24" cy="7588.54" fx="603.24" fy="7588.54" r="1" gradientTransform="translate(-33977.26 -362971.05) scale(56.98 47.84)" gradientUnits="userSpaceOnUse">
      <stop offset="0" stop-color="#fff"/>
      <stop offset="1" stop-color="#ffce00"/>
    </radialGradient>
    <clipPath id="clippath-16">
      <polygon class="cls-13" points="245.32 30.47 247.25 32.74 390.55 32.74 392.47 30.47 245.32 30.47"/>
    </clipPath>
    <linearGradient id="linear-gradient-13" y1="6983.51" y2="6983.51" gradientTransform="translate(-15547.66 7673.47) rotate(-90) scale(2.27)" xlink:href="#linear-gradient-2"/>
    <clipPath id="clippath-17">
      <polygon class="cls-13" points="247.25 32.74 247.25 32.74 249.17 35.01 388.63 35.01 390.55 32.74 390.55 32.74 247.25 32.74"/>
    </clipPath>
    <linearGradient id="linear-gradient-14" y1="6982.86" y2="6982.86" gradientTransform="translate(-15532.12 7674.46) rotate(-90) scale(2.27)" xlink:href="#linear-gradient-3"/>
    <clipPath id="clippath-18">
      <polygon class="cls-13" points="249.17 72.3 247.25 74.57 390.55 74.57 388.63 72.3 249.17 72.3"/>
    </clipPath>
    <linearGradient id="linear-gradient-15" x1="3363.01" y1="6983.51" x2="3364.01" y2="6983.51" gradientTransform="translate(-15547.55 7715.29) rotate(-90) scale(2.27)" xlink:href="#linear-gradient-2"/>
    <clipPath id="clippath-19">
      <polygon class="cls-13" points="247.25 74.57 245.32 76.84 392.47 76.84 390.55 74.57 247.25 74.57"/>
    </clipPath>
    <linearGradient id="linear-gradient-16" x1="3364.18" y1="6983.19" x2="3365.18" y2="6983.19" gradientTransform="translate(-15540.01 7716.94) rotate(-90) scale(2.27)" xlink:href="#linear-gradient-3"/>
    <clipPath id="clippath-20">
      <polygon class="cls-13" points="235.74 53.66 242.1 69.04 245.32 76.84 245.32 76.84 247.25 74.57 244.96 69.04 238.6 53.66 235.74 53.66"/>
    </clipPath>
    <linearGradient id="linear-gradient-17" y1="7646.23" y2="7646.23" gradientTransform="translate(-177059.41 20947.83) rotate(-90) scale(23.19)" xlink:href="#linear-gradient-10"/>
    <clipPath id="clippath-21">
      <polygon class="cls-13" points="244.96 38.27 238.6 53.65 238.6 53.66 241.47 53.66 247.83 38.27 249.17 35.01 247.25 32.74 244.96 38.27"/>
    </clipPath>
    <linearGradient id="linear-gradient-18" x1="474.62" y1="7131.31" x2="475.62" y2="7131.31" gradientTransform="translate(-4778.07 -75334.41) scale(10.57)" xlink:href="#linear-gradient-11"/>
    <clipPath id="clippath-22">
      <polygon class="cls-13" points="399.2 53.66 392.84 69.04 390.55 74.57 392.47 76.84 392.47 76.84 395.7 69.04 402.06 53.66 399.2 53.66"/>
    </clipPath>
    <linearGradient id="linear-gradient-19" y1="7646.23" y2="7646.23" gradientTransform="translate(-176904.6 20947.83) rotate(-90) scale(23.19)" xlink:href="#linear-gradient-6"/>
    <clipPath id="clippath-23">
      <polygon class="cls-13" points="396.33 53.66 389.97 69.04 388.63 72.3 390.55 74.57 390.55 74.57 392.84 69.04 399.2 53.66 399.2 53.66 396.33 53.66"/>
    </clipPath>
    <linearGradient id="linear-gradient-20" x1="929.12" y1="7638.42" x2="930.12" y2="7638.42" gradientTransform="translate(-159378.88 19509.05) rotate(-90) scale(20.92)" gradientUnits="userSpaceOnUse">
      <stop offset="0" stop-color="#304d73"/>
      <stop offset="1" stop-color="#5b799c"/>
    </linearGradient>
    <clipPath id="clippath-24">
      <polygon class="cls-13" points="392.47 30.47 390.55 32.74 392.84 38.27 399.2 53.66 402.06 53.66 395.7 38.27 392.47 30.47 392.47 30.47"/>
    </clipPath>
    <linearGradient id="linear-gradient-21" y1="7646.23" y2="7646.23" gradientTransform="translate(-176896.82 20924) rotate(-90) scale(23.19)" xlink:href="#linear-gradient-8"/>
    <clipPath id="clippath-25">
      <polygon class="cls-13" points="388.63 35.01 389.97 38.27 396.33 53.66 399.2 53.66 399.2 53.65 392.84 38.27 390.55 32.74 388.63 35.01"/>
    </clipPath>
    <linearGradient id="linear-gradient-22" x1="929.15" y1="7638.41" x2="930.15" y2="7638.41" gradientTransform="translate(-159363.39 19486.86) rotate(-90) scale(20.91)" xlink:href="#linear-gradient-7"/>
    <clipPath id="clippath-26">
      <polygon class="cls-13" points="30.77 0 8.59 53.66 30.77 107.31 371.29 107.31 393.47 53.66 371.29 0 30.77 0"/>
    </clipPath>
    <linearGradient id="linear-gradient-23" x1="690.35" y1="7702.67" x2="691.35" y2="7702.67" gradientTransform="translate(-826402.97 74191.55) rotate(-90) scale(107.31)" gradientUnits="userSpaceOnUse">
      <stop offset="0" stop-color="#6280c2"/>
      <stop offset="1" stop-color="#d9150b"/>
    </linearGradient>
    <clipPath id="clippath-27">
      <polygon class="cls-13" points="39.68 10.51 21.84 53.66 39.68 96.8 362.38 96.8 380.22 53.66 362.38 10.51 39.68 10.51"/>
    </clipPath>
    <linearGradient id="linear-gradient-24" x1="704.43" y1="7698.88" x2="705.43" y2="7698.88" gradientTransform="translate(-664150.53 60883.73) rotate(-90) scale(86.29)" gradientUnits="userSpaceOnUse">
      <stop offset="0" stop-color="#ff3e15"/>
      <stop offset=".99" stop-color="#ff8714"/>
      <stop offset="1" stop-color="#ff8714"/>
    </linearGradient>
    <clipPath id="clippath-28">
      <polygon class="cls-13" points="30.77 0 35.22 5.25 366.84 5.25 371.29 0 371.29 0 30.77 0"/>
    </clipPath>
    <linearGradient id="linear-gradient-25" x1="1813.28" y1="7400.51" x2="1814.28" y2="7400.51" gradientTransform="translate(-38681.23 9532.22) rotate(-90) scale(5.25)" xlink:href="#linear-gradient-2"/>
    <clipPath id="clippath-29">
      <polygon class="cls-13" points="35.22 5.25 35.22 5.26 39.68 10.51 362.38 10.51 366.84 5.25 35.22 5.25"/>
    </clipPath>
    <linearGradient id="linear-gradient-26" x1="1812.83" y1="7400.63" x2="1813.83" y2="7400.63" gradientTransform="translate(-38696.66 9538.74) rotate(-90) scale(5.26)" xlink:href="#linear-gradient-3"/>
    <clipPath id="clippath-30">
      <polygon class="cls-13" points="39.68 96.8 35.22 102.06 35.22 102.06 366.84 102.06 362.38 96.8 39.68 96.8"/>
    </clipPath>
    <linearGradient id="linear-gradient-27" x1="1812.83" y1="7400.63" x2="1813.83" y2="7400.63" gradientTransform="translate(-38696.6 9630.28) rotate(-90) scale(5.26)" xlink:href="#linear-gradient-2"/>
    <clipPath id="clippath-31">
      <polygon class="cls-13" points="35.22 102.06 30.77 107.31 371.29 107.31 371.29 107.31 366.84 102.06 35.22 102.06"/>
    </clipPath>
    <linearGradient id="linear-gradient-28" x1="1812.83" y1="7400.63" x2="1813.83" y2="7400.63" gradientTransform="translate(-38696.72 9635.55) rotate(-90) scale(5.26)" xlink:href="#linear-gradient-3"/>
    <clipPath id="clippath-32">
      <polygon class="cls-13" points="8.59 53.66 23.31 89.25 30.77 107.31 35.22 102.06 29.93 89.25 15.21 53.66 8.59 53.66"/>
    </clipPath>
    <linearGradient id="linear-gradient-29" x1="748.16" y1="7687.11" x2="749.16" y2="7687.11" gradientTransform="translate(-412453.21 40251.86) rotate(-90) scale(53.66)" xlink:href="#linear-gradient-6"/>
    <clipPath id="clippath-33">
      <polygon class="cls-13" points="15.21 53.66 29.93 89.25 35.22 102.06 39.68 96.8 36.56 89.25 21.84 53.66 15.21 53.66"/>
    </clipPath>
    <linearGradient id="linear-gradient-30" x1="760.71" y1="7683.73" x2="761.71" y2="7683.73" gradientTransform="translate(-371880.63 36921.96) rotate(-90) scale(48.4)" xlink:href="#linear-gradient-20"/>
    <clipPath id="clippath-34">
      <polygon class="cls-13" points="23.31 18.06 8.59 53.66 15.21 53.66 29.93 18.06 35.22 5.25 30.77 0 23.31 18.06"/>
    </clipPath>
    <linearGradient id="linear-gradient-31" x1="748.16" y1="7687.11" x2="749.16" y2="7687.11" gradientTransform="translate(-412437.81 40196.94) rotate(-90) scale(53.66)" xlink:href="#linear-gradient-8"/>
    <clipPath id="clippath-35">
      <polygon class="cls-13" points="29.93 18.06 15.21 53.66 21.84 53.66 36.56 18.06 39.68 10.51 35.22 5.25 29.93 18.06"/>
    </clipPath>
    <linearGradient id="linear-gradient-32" x1="760.71" y1="7683.73" x2="761.71" y2="7683.73" gradientTransform="translate(-371880.66 36873.56) rotate(-90) scale(48.4)" xlink:href="#linear-gradient-7"/>
    <clipPath id="clippath-36">
      <polygon class="cls-13" points="386.84 53.66 372.13 89.25 366.84 102.06 371.29 107.31 378.76 89.25 393.47 53.66 386.84 53.66"/>
    </clipPath>
    <linearGradient id="linear-gradient-33" x1="748.16" y1="7687.11" x2="749.16" y2="7687.11" gradientTransform="translate(-412094.96 40251.86) rotate(-90) scale(53.66)" xlink:href="#linear-gradient-6"/>
    <clipPath id="clippath-37">
      <polygon class="cls-13" points="380.22 53.66 365.5 89.25 362.38 96.8 362.38 96.8 366.84 102.06 372.13 89.25 386.84 53.66 380.22 53.66"/>
    </clipPath>
    <linearGradient id="linear-gradient-34" x1="760.71" y1="7683.73" x2="761.71" y2="7683.73" gradientTransform="translate(-371533.46 36921.96) rotate(-90) scale(48.4)" xlink:href="#linear-gradient-20"/>
    <clipPath id="clippath-38">
      <polygon class="cls-13" points="366.84 5.25 372.13 18.06 386.84 53.66 393.47 53.66 378.76 18.06 371.29 0 366.84 5.25"/>
    </clipPath>
    <linearGradient id="linear-gradient-35" x1="748.16" y1="7687.11" x2="749.16" y2="7687.11" gradientTransform="translate(-412079.56 40196.94) rotate(-90) scale(53.66)" xlink:href="#linear-gradient-8"/>
    <clipPath id="clippath-39">
      <polygon class="cls-13" points="362.38 10.51 362.38 10.51 365.5 18.06 380.22 53.66 386.84 53.66 372.13 18.06 366.84 5.25 362.38 10.51"/>
    </clipPath>
    <linearGradient id="linear-gradient-36" x1="760.71" y1="7683.73" x2="761.71" y2="7683.73" gradientTransform="translate(-371533.49 36873.56) rotate(-90) scale(48.4)" xlink:href="#linear-gradient-7"/>
    <clipPath id="clippath-40">
      <polygon class="cls-13" points="39.68 10.51 44.13 15.77 357.93 15.77 362.38 10.51 39.68 10.51"/>
    </clipPath>
    <linearGradient id="linear-gradient-37" x1="627.37" y1="7699" x2="628.37" y2="7699" gradientTransform="translate(-202415.69 -2484492.76) scale(322.71)" gradientUnits="userSpaceOnUse">
      <stop offset="0" stop-color="#f69b00"/>
      <stop offset=".52" stop-color="#ef7414"/>
      <stop offset="1" stop-color="#e84d2a"/>
    </linearGradient>
    <clipPath id="clippath-41">
      <polygon class="cls-13" points="21.84 53.66 28.47 53.66 44.13 15.77 44.13 15.76 39.68 10.51 21.84 53.66"/>
    </clipPath>
    <linearGradient id="linear-gradient-38" x1="776.32" y1="7679.53" x2="777.32" y2="7679.53" gradientTransform="translate(-331308.14 33548.91) rotate(-90) scale(43.15)" xlink:href="#linear-gradient-37"/>
    <clipPath id="clippath-42">
      <polygon class="cls-13" points="44.13 91.55 39.68 96.8 39.68 96.8 362.38 96.8 357.93 91.55 44.13 91.55"/>
    </clipPath>
    <linearGradient id="linear-gradient-39" x1="1813.05" y1="7400.57" x2="1814.05" y2="7400.57" gradientTransform="translate(-38689 9624.4) rotate(-90) scale(5.26)" xlink:href="#linear-gradient-37"/>
    <clipPath id="clippath-43">
      <polygon class="cls-13" points="21.84 53.66 39.68 96.8 44.13 91.55 44.13 91.54 28.47 53.66 21.84 53.66"/>
    </clipPath>
    <linearGradient id="linear-gradient-40" x1="776.32" y1="7679.53" x2="777.32" y2="7679.53" gradientTransform="translate(-331308.08 33592.05) rotate(-90) scale(43.15)" xlink:href="#linear-gradient-37"/>
    <clipPath id="clippath-44">
      <polygon class="cls-13" points="357.93 15.76 357.93 15.77 373.59 53.66 380.22 53.66 362.38 10.51 357.93 15.76"/>
    </clipPath>
    <linearGradient id="linear-gradient-41" x1="776.32" y1="7679.53" x2="777.32" y2="7679.53" gradientTransform="translate(-330972.05 33548.91) rotate(-90) scale(43.15)" xlink:href="#linear-gradient-37"/>
    <clipPath id="clippath-45">
      <polygon class="cls-13" points="373.59 53.66 357.93 91.54 357.93 91.55 362.38 96.8 380.22 53.66 373.59 53.66"/>
    </clipPath>
    <linearGradient id="linear-gradient-42" x1="776.32" y1="7679.53" x2="777.32" y2="7679.53" gradientTransform="translate(-330971.99 33592.05) rotate(-90) scale(43.15)" xlink:href="#linear-gradient-37"/>
    <clipPath id="clippath-46">
      <rect class="cls-13" x="50.45" y="14.23" width="301.16" height="1.53"/>
    </clipPath>
    <clipPath id="clippath-47">
      <rect class="cls-13" x="50.45" y="14.23" width="301.16" height="1.53"/>
    </clipPath>
    <clipPath id="clippath-48">
      <rect class="cls-13" x="21.84" y="19.07" width="20.92" height="34.58"/>
    </clipPath>
    <clipPath id="clippath-49">
      <path class="cls-13" d="M28.67,47.01c-2.21,4.38-4.7,5.89-6.83,6.65h6.63l14.29-34.58-14.09,27.93Z"/>
    </clipPath>
    <linearGradient id="linear-gradient-43" x1="811.95" y1="7669.95" x2="812.95" y2="7669.95" gradientTransform="translate(-265186.92 28129.93) rotate(-90) scale(34.58)" gradientUnits="userSpaceOnUse">
      <stop offset="0" stop-color="#0097f3"/>
      <stop offset=".1" stop-color="#0083d3"/>
      <stop offset=".35" stop-color="#005589"/>
      <stop offset=".57" stop-color="#00304e"/>
      <stop offset=".76" stop-color="#001623"/>
      <stop offset=".91" stop-color="#000609"/>
      <stop offset="1" stop-color="#000"/>
    </linearGradient>
    <clipPath id="clippath-50">
      <rect class="cls-13" x="359.3" y="19.07" width="20.92" height="34.58"/>
    </clipPath>
    <clipPath id="clippath-51">
      <path class="cls-13" d="M359.3,19.08l14.29,34.57h6.63c-2.13-.76-4.62-2.27-6.83-6.65l-14.09-27.93h0Z"/>
    </clipPath>
    <linearGradient id="linear-gradient-44" y1="7669.95" x2="812.95" y2="7669.95" gradientTransform="translate(-264849.46 28129.93) rotate(-90) scale(34.58)" xlink:href="#linear-gradient-43"/>
    <clipPath id="clippath-52">
      <rect class="cls-13" x="50.45" y="100.52" width="301.16" height="1.53"/>
    </clipPath>
    <clipPath id="clippath-53">
      <rect class="cls-13" x="50.45" y="100.53" width="301.16" height="1.53"/>
    </clipPath>
    <clipPath id="clippath-54">
      <rect class="cls-13" x="28.47" y="15.76" width="345.12" height="37.89"/>
    </clipPath>
    <clipPath id="clippath-55">
      <polygon class="cls-13" points="44.13 15.77 43.18 18.06 42.76 19.08 28.47 53.65 28.47 53.66 373.59 53.66 373.59 53.65 359.3 19.08 358.88 18.06 357.93 15.77 44.13 15.77"/>
    </clipPath>
    <linearGradient id="linear-gradient-45" x1="796.27" y1="7674.17" x2="797.27" y2="7674.17" gradientTransform="translate(-290573.14 30224.27) rotate(-90) scale(37.89)" gradientUnits="userSpaceOnUse">
      <stop offset="0" stop-color="#ff9f26"/>
      <stop offset=".08" stop-color="#f59924"/>
      <stop offset=".23" stop-color="#db8920"/>
      <stop offset=".41" stop-color="#b16e1a"/>
      <stop offset=".62" stop-color="#774a11"/>
      <stop offset=".86" stop-color="#2e1c06"/>
      <stop offset="1" stop-color="#000"/>
    </linearGradient>
    <clipPath id="clippath-56">
      <rect class="cls-13" x="28.47" y="53.65" width="345.12" height="37.89"/>
    </clipPath>
    <clipPath id="clippath-57">
      <polygon class="cls-13" points="28.47 53.66 28.47 53.67 42.76 88.23 43.18 89.26 44.13 91.55 357.93 91.55 358.88 89.26 359.3 88.23 373.59 53.66 373.59 53.66 28.47 53.66"/>
    </clipPath>
    <linearGradient id="linear-gradient-46" x1="796.27" y1="7674.17" x2="797.27" y2="7674.17" gradientTransform="translate(-290573.14 30262.16) rotate(-90) scale(37.89)" gradientUnits="userSpaceOnUse">
      <stop offset="0" stop-color="#d61100"/>
      <stop offset=".1" stop-color="#cc1000"/>
      <stop offset=".26" stop-color="#b30e00"/>
      <stop offset=".46" stop-color="#8a0b00"/>
      <stop offset=".7" stop-color="#510600"/>
      <stop offset=".97" stop-color="#090000"/>
      <stop offset="1" stop-color="#000"/>
    </linearGradient>
    <clipPath id="clippath-58">
      <rect class="cls-13" x="28.47" y="15.76" width="345.12" height="37.89"/>
    </clipPath>
    <clipPath id="clippath-59">
      <polygon class="cls-13" points="44.13 15.77 43.18 18.06 42.76 19.08 28.47 53.65 28.47 53.66 373.59 53.66 373.59 53.65 359.3 19.08 358.88 18.06 357.93 15.77 44.13 15.77"/>
    </clipPath>
    <radialGradient id="radial-gradient-3" cx="623" cy="7675.96" fx="623" fy="7675.96" r="1" gradientTransform="translate(-108726.6 -1126843.31) scale(174.85 146.8)" gradientUnits="userSpaceOnUse">
      <stop offset="0" stop-color="#ea5826"/>
      <stop offset=".09" stop-color="#cf4e21"/>
      <stop offset=".34" stop-color="#863215"/>
      <stop offset=".57" stop-color="#4c1c0c"/>
      <stop offset=".76" stop-color="#230d05"/>
      <stop offset=".91" stop-color="#090301"/>
      <stop offset="1" stop-color="#000"/>
    </radialGradient>
    <clipPath id="clippath-60">
      <rect class="cls-13" x="28.47" y="53.35" width="345.12" height="37.89"/>
    </clipPath>
    <clipPath id="clippath-61">
      <polygon class="cls-13" points="28.47 53.35 28.47 53.36 42.76 87.93 43.18 88.96 44.13 91.24 357.93 91.24 358.88 88.96 359.3 87.93 373.59 53.36 373.59 53.35 28.47 53.35"/>
    </clipPath>
    <radialGradient id="radial-gradient-4" cx="624" cy="7756.05" fx="624" fy="7756.05" r="1" gradientTransform="translate(-121668.24 1272041.26) scale(195.3 -163.98)" gradientUnits="userSpaceOnUse">
      <stop offset="0" stop-color="#ea3809"/>
      <stop offset=".5" stop-color="#ea3809"/>
      <stop offset=".54" stop-color="#e23608"/>
      <stop offset=".61" stop-color="#cc3107"/>
      <stop offset=".7" stop-color="#a92806"/>
      <stop offset=".8" stop-color="#791d04"/>
      <stop offset=".91" stop-color="#3b0e02"/>
      <stop offset="1" stop-color="#000"/>
    </radialGradient>
  </defs>
  <g class="cls-69">
    <g id="Layer_1" data-name="Layer 1">
      <g>
        <g class="cls-67">
          <rect class="cls-6" x="0" y="30.47" width="166.32" height="46.38"/>
        </g>
        <g class="cls-100">
          <rect class="cls-39" x="5.73" y="35.01" width="154.87" height="37.29"/>
        </g>
        <g class="cls-81">
          <rect class="cls-30" x="9.59" y="30.47" width="147.15" height="2.27"/>
        </g>
        <g class="cls-108">
          <rect class="cls-36" x="11.51" y="32.74" width="143.3" height="2.27"/>
        </g>
        <g class="cls-74">
          <rect class="cls-52" x="11.51" y="72.3" width="143.3" height="2.27"/>
        </g>
        <g class="cls-77">
          <rect class="cls-12" x="9.59" y="74.57" width="147.15" height="2.27"/>
        </g>
        <g class="cls-102">
          <rect class="cls-8" y="53.66" width="11.51" height="23.19"/>
        </g>
        <g class="cls-91">
          <rect class="cls-32" x="2.86" y="53.66" width="10.57" height="20.92"/>
        </g>
        <g class="cls-111">
          <rect class="cls-41" y="30.47" width="11.51" height="23.19"/>
        </g>
        <g class="cls-57">
          <rect class="cls-37" x="2.86" y="32.74" width="10.57" height="20.91"/>
        </g>
        <g class="cls-87">
          <rect class="cls-50" x="154.81" y="53.66" width="11.51" height="23.19"/>
        </g>
        <g class="cls-68">
          <rect class="cls-11" x="152.89" y="32.74" width="10.57" height="20.91"/>
        </g>
        <g class="cls-106">
          <rect class="cls-2" x="235.74" y="30.47" width="166.32" height="46.38"/>
        </g>
        <g class="cls-73">
          <rect class="cls-33" x="241.47" y="35.01" width="154.87" height="37.29"/>
        </g>
        <g class="cls-58">
          <rect class="cls-18" x="245.32" y="30.47" width="147.15" height="2.27"/>
        </g>
        <g class="cls-107">
          <rect class="cls-29" x="247.25" y="32.74" width="143.3" height="2.27"/>
        </g>
        <g class="cls-105">
          <rect class="cls-10" x="247.25" y="72.3" width="143.3" height="2.27"/>
        </g>
        <g class="cls-97">
          <rect class="cls-23" x="245.32" y="74.57" width="147.15" height="2.27"/>
        </g>
        <g class="cls-56">
          <rect class="cls-3" x="235.74" y="53.66" width="11.51" height="23.19"/>
        </g>
        <g class="cls-78">
          <rect class="cls-44" x="238.6" y="32.74" width="10.57" height="20.91"/>
        </g>
        <g class="cls-90">
          <rect class="cls-4" x="390.55" y="53.66" width="11.51" height="23.19"/>
        </g>
        <g class="cls-112">
          <rect class="cls-28" x="388.63" y="53.66" width="10.57" height="20.92"/>
        </g>
        <g class="cls-88">
          <rect class="cls-7" x="390.55" y="30.47" width="11.51" height="23.19"/>
        </g>
        <g class="cls-72">
          <rect class="cls-24" x="388.63" y="32.74" width="10.57" height="20.91"/>
        </g>
        <g class="cls-76">
          <rect class="cls-19" x="8.59" y="0" width="384.88" height="107.31"/>
        </g>
        <g class="cls-84">
          <rect class="cls-42" x="21.84" y="10.51" width="358.38" height="86.29"/>
        </g>
        <g class="cls-117">
          <rect class="cls-20" x="30.77" y="0" width="340.52" height="5.25"/>
        </g>
        <g class="cls-104">
          <rect class="cls-43" x="35.22" y="5.25" width="331.61" height="5.25"/>
        </g>
        <g class="cls-89">
          <rect class="cls-38" x="35.22" y="96.8" width="331.61" height="5.26"/>
        </g>
        <g class="cls-98">
          <rect class="cls-49" x="30.77" y="102.06" width="340.52" height="5.26"/>
        </g>
        <g class="cls-66">
          <rect class="cls-47" x="8.59" y="53.66" width="26.63" height="53.66"/>
        </g>
        <g class="cls-60">
          <rect class="cls-45" x="15.21" y="53.66" width="24.46" height="48.4"/>
        </g>
        <g class="cls-79">
          <rect class="cls-14" x="8.59" y="0" width="26.63" height="53.66"/>
        </g>
        <g class="cls-118">
          <rect class="cls-27" x="15.21" y="5.25" width="24.46" height="48.4"/>
        </g>
        <g class="cls-83">
          <rect class="cls-5" x="366.84" y="53.66" width="26.63" height="53.66"/>
        </g>
        <g class="cls-70">
          <rect class="cls-15" x="362.38" y="53.66" width="24.46" height="48.4"/>
        </g>
        <g class="cls-82">
          <rect class="cls-26" x="366.84" y="0" width="26.63" height="53.66"/>
        </g>
        <g class="cls-96">
          <rect class="cls-40" x="362.38" y="5.25" width="24.46" height="48.4"/>
        </g>
        <g class="cls-75">
          <rect class="cls-53" x="39.68" y="10.51" width="322.7" height="5.26"/>
        </g>
        <g class="cls-65">
          <rect class="cls-1" x="21.84" y="10.51" width="22.29" height="43.15"/>
        </g>
        <g class="cls-110">
          <rect class="cls-34" x="39.68" y="91.55" width="322.7" height="5.26"/>
        </g>
        <g class="cls-101">
          <rect class="cls-17" x="21.84" y="53.66" width="22.29" height="43.15"/>
        </g>
        <g class="cls-86">
          <rect class="cls-16" x="357.93" y="10.51" width="22.29" height="43.15"/>
        </g>
        <g class="cls-55">
          <rect class="cls-9" x="357.93" y="53.66" width="22.29" height="43.15"/>
        </g>
        <g class="cls-62">
          <g class="cls-71">
            <g class="cls-64">
              <path class="cls-35" d="M201.03,14.24c54.04,0,105.14.55,150.58,1.53H50.45c45.44-.98,96.54-1.53,150.58-1.53"/>
            </g>
          </g>
        </g>
        <g class="cls-63">
          <g class="cls-94">
            <g class="cls-115">
              <rect class="cls-21" x="21.84" y="19.08" width="20.92" height="34.58"/>
            </g>
          </g>
        </g>
        <g class="cls-63">
          <g class="cls-93">
            <g class="cls-116">
              <rect class="cls-46" x="359.3" y="19.08" width="20.92" height="34.57"/>
            </g>
          </g>
        </g>
        <g class="cls-62">
          <g class="cls-92">
            <g class="cls-114">
              <path class="cls-22" d="M201.03,100.53c54.04,0,105.14.55,150.58,1.53H50.45c45.44-.98,96.54-1.53,150.58-1.53"/>
            </g>
          </g>
        </g>
        <g class="cls-61">
          <g class="cls-99">
            <g class="cls-103">
              <rect class="cls-31" x="28.47" y="15.77" width="345.12" height="37.89"/>
            </g>
          </g>
        </g>
        <g class="cls-63">
          <g class="cls-113">
            <g class="cls-80">
              <rect class="cls-48" x="28.47" y="53.66" width="345.12" height="37.89"/>
            </g>
          </g>
        </g>
        <g class="cls-63">
          <g class="cls-109">
            <g class="cls-59">
              <rect class="cls-51" x="28.47" y="15.77" width="345.12" height="37.89"/>
            </g>
          </g>
        </g>
        <g class="cls-63">
          <g class="cls-85">
            <g class="cls-95">
              <rect class="cls-54" x="28.47" y="53.36" width="345.12" height="37.89"/>
            </g>
          </g>
        </g>
        <g>
          <path class="cls-25" d="M153.04,59.7c0,1.93-.8,3.35-2.39,4.27s-3.67,1.37-6.25,1.37h-19.1c-1.07,0-2.12-.12-3.14-.35-1.02-.23-1.93-.59-2.74-1.07s-1.45-1.06-1.93-1.74c-.48-.68-.72-1.48-.72-2.41h27.31v-5.04h-19.15c-1.07,0-2.1-.12-3.08-.35-.98-.23-1.85-.59-2.6-1.07-.75-.48-1.35-1.07-1.8-1.77-.45-.7-.67-1.53-.67-2.49v-4.45c0-1.07.22-2,.67-2.79.45-.79,1.05-1.43,1.8-1.93.75-.5,1.62-.87,2.6-1.1.98-.23,2.03-.35,3.14-.35h19.53c2.58,0,4.64.44,6.2,1.31,1.56.88,2.33,2.32,2.33,4.32h-27.09v4.99h18.51c1.07,0,2.13.1,3.17.29,1.04.2,1.95.51,2.74.94.79.43,1.43.99,1.93,1.69.5.7.75,1.49.75,2.39v5.37Z"/>
          <path class="cls-25" d="M181.74,61.09c0,.64-.17,1.22-.51,1.72-.34.5-.78.94-1.31,1.31-.54.38-1.17.66-1.9.86-.73.2-1.51.29-2.33.29h-13.31c-.86,0-1.65-.1-2.39-.29-.73-.2-1.38-.48-1.93-.86-.56-.38-.99-.81-1.31-1.31-.32-.5-.48-1.07-.48-1.72v-15.99h.75c1.75,0,3.19.26,4.32.78,1.13.52,1.69,1.42,1.69,2.71v12.55h12.02v-16.04h6.71v15.99Z"/>
          <path class="cls-25" d="M212,60.18c0,.97-.19,1.79-.56,2.47-.38.68-.88,1.21-1.5,1.58-.63.38-1.34.64-2.15.81-.8.16-1.66.24-2.55.24h-20.28v-20.17h20.33c2.15,0,3.8.34,4.96,1.02,1.16.68,1.74,1.54,1.74,2.58v.54c0,.54-.17,1.1-.51,1.69-.34.59-.81,1.05-1.42,1.37-.82.43-1.86.72-3.11.86v.05c.57.11,1.13.24,1.66.4.54.16,1.02.4,1.45.72.61.32,1.08.74,1.42,1.26.34.52.51,1.08.51,1.69v2.9ZM205.3,49.34h-13.63v3.76h13.63v-3.76ZM191.67,57.34v3.81h13.63v-3.81h-13.63Z"/>
          <path class="cls-25" d="M238.02,65.28v-12.39l-7.99,9.01-8.1-9.01v12.39h-6.71v-20.17h1.29c.36,0,.81,0,1.37.03.55.02,1.13.11,1.72.27.59.16,1.2.38,1.82.64.62.27,1.19.67,1.69,1.21l6.92,7.24,6.87-7.24c.46-.54,1.01-.94,1.64-1.21.63-.27,1.24-.48,1.85-.64.61-.16,1.2-.25,1.77-.27.57-.02,1.02-.03,1.34-.03h1.29v20.17h-6.76Z"/>
          <path class="cls-25" d="M254.01,65.28c-.82,0-1.59-.1-2.31-.29-.72-.2-1.35-.48-1.9-.86-.56-.38-.99-.81-1.31-1.31-.32-.5-.48-1.07-.48-1.72v-15.99h6.71v20.17h-.7Z"/>
          <path class="cls-25" d="M285.29,46.02c0,.86-.21,1.51-.62,1.96-.41.45-.9.77-1.47.97-.57.2-1.17.31-1.8.35-.63.04-1.15.05-1.58.05h-4.72v11.75c0,1.5-.34,2.58-1.02,3.22-.68.64-1.95.97-3.81.97h-1.99v-15.93h-10.35v-.59c0-1.4.41-2.35,1.23-2.87.82-.52,1.99-.78,3.49-.78h22.64v.91Z"/>
        </g>
      </g>
    </g>
  </g>
</svg>