<?xml version="1.0" encoding="UTF-8"?>
<svg id="Layer_1" data-name="Layer 1" xmlns="http://www.w3.org/2000/svg" xmlns:xlink="http://www.w3.org/1999/xlink" viewBox="0 0 130.52 73.65">
  <defs>
    <style>
      .cls-1 {
        opacity: .7;
      }

      .cls-2 {
        fill: none;
      }

      .cls-2, .cls-3 {
        stroke-width: 0px;
      }

      .cls-4 {
        clip-path: url(#clippath-1);
      }

      .cls-3 {
        fill: #fff;
      }

      .cls-5 {
        clip-path: url(#clippath);
      }
    </style>
    <clipPath id="clippath">
      <rect class="cls-2" width="130.52" height="73.65"/>
    </clipPath>
    <clipPath id="clippath-1">
      <rect class="cls-2" x="0" y="0" width="130.52" height="73.65"/>
    </clipPath>
  </defs>
  <g class="cls-1">
    <g class="cls-5">
      <g class="cls-4">
        <path class="cls-3" d="M24.17,3.66c.31.18.57.38.83.58.26.2.49.42.72.63.45.43.86.89,1.22,1.36.74.94,1.33,1.95,1.83,3.01.49,1.06.88,2.17,1.12,3.34.12.58.21,1.19.25,1.81.02.31.03.63.02.96,0,.33-.03.66-.09,1.01-.31-.18-.58-.38-.83-.58-.26-.2-.49-.42-.72-.63-.45-.43-.86-.89-1.22-1.36-.74-.94-1.33-1.95-1.82-3.01-.49-1.06-.87-2.17-1.12-3.34-.12-.59-.21-1.19-.25-1.81-.02-.31-.03-.63-.02-.96,0-.33.03-.66.09-1.01"/>
        <path class="cls-3" d="M11.75,16.03c.35-.03.68-.02,1.01,0,.33.02.64.06.95.1.62.09,1.21.23,1.79.4,1.15.34,2.22.82,3.23,1.4,1.01.58,1.97,1.26,2.84,2.07.44.41.86.85,1.25,1.34.19.25.39.5.57.77.18.27.36.55.51.88-.35.03-.69.03-1.01,0-.33-.02-.64-.06-.95-.1-.62-.09-1.21-.23-1.79-.4-1.15-.34-2.22-.82-3.23-1.4-1.01-.58-1.96-1.26-2.84-2.08-.44-.41-.86-.85-1.25-1.34-.19-.25-.39-.5-.57-.77-.18-.27-.36-.55-.51-.87"/>
        <path class="cls-3" d="M7.79,30.1c.31-.17.61-.3.92-.42.3-.12.61-.21.91-.3.6-.17,1.2-.29,1.79-.37,1.19-.16,2.36-.17,3.52-.06,1.16.11,2.31.33,3.45.71.57.19,1.13.42,1.69.7.28.14.56.29.83.47.28.17.55.36.82.59-.31.17-.61.31-.92.42-.3.12-.61.21-.91.3-.6.17-1.2.29-1.79.37-1.19.16-2.36.17-3.52.06-1.16-.11-2.31-.34-3.45-.72-.57-.19-1.13-.42-1.69-.7-.28-.14-.56-.29-.83-.47-.28-.17-.55-.36-.82-.58"/>
        <path class="cls-3" d="M40.11,0c.17.31.31.61.42.92.12.3.21.6.3.9.17.6.29,1.2.38,1.79.16,1.19.17,2.36.07,3.52-.11,1.16-.33,2.31-.71,3.45-.19.57-.42,1.13-.7,1.69-.14.28-.29.56-.47.84-.17.28-.36.55-.59.83-.18-.31-.31-.62-.43-.92-.12-.3-.22-.61-.31-.91-.17-.6-.3-1.2-.38-1.79-.16-1.18-.17-2.36-.07-3.52.11-1.16.33-2.31.71-3.45.19-.57.42-1.13.7-1.69.14-.28.29-.56.46-.83.17-.28.35-.55.58-.83"/>
        <path class="cls-3" d="M55.18,4.28c.02.35,0,.69-.02,1.01-.03.33-.07.64-.13.95-.11.62-.26,1.21-.45,1.77-.38,1.14-.88,2.2-1.49,3.19-.61,1-1.31,1.93-2.15,2.78-.42.43-.87.83-1.37,1.21-.25.19-.51.37-.79.54-.28.17-.56.34-.89.48-.02-.35,0-.69.02-1.01.03-.33.07-.64.12-.95.11-.62.26-1.21.45-1.77.38-1.14.88-2.19,1.49-3.19.61-.99,1.32-1.93,2.16-2.78.42-.43.87-.83,1.37-1.21.25-.19.51-.37.79-.54.27-.17.56-.34.89-.48"/>
        <path class="cls-3" d="M65.44,14.39c-.12.33-.27.63-.42.92-.15.29-.32.56-.49.82-.34.52-.72,1-1.11,1.45-.79.9-1.68,1.67-2.62,2.35-.95.68-1.97,1.26-3.07,1.71-.55.23-1.13.42-1.74.57-.31.07-.61.14-.94.19-.32.05-.65.09-1.01.09.12-.33.26-.63.42-.92.15-.29.32-.56.49-.82.34-.52.72-1.01,1.11-1.45.79-.9,1.68-1.67,2.63-2.34.95-.67,1.97-1.25,3.08-1.71.55-.23,1.13-.42,1.74-.58.3-.07.61-.14.94-.19.32-.05.65-.09,1.01-.1"/>
        <path class="cls-3" d="M45.59,15.09c-8.89-3.64-19.04.61-22.68,9.5-2.72,6.65-1.02,14,3.72,18.81.53-.16,1.07-.29,1.64-.37,1.25-.18,2.43-.15,3.52.08,1.01.21,1.9.58,2.67,1.09-.05-.21-.1-.42-.13-.63-.19-1.26-.03-2.57.36-3.8.39-1.22,1-2.39,1.88-3.38.44-.49.93-.93,1.46-1.32.27-.19.54-.37.82-.54.14-.08.27-.16.41-.23-.17-.75-.27-1.52-.27-2.31,0-5.73,4.65-10.38,10.38-10.38,1.77,0,3.44.45,4.9,1.23-1.85-3.39-4.82-6.19-8.67-7.77"/>
        <path class="cls-3" d="M7.22,67.14c.49.46,1.11.64,1.84.53.39-.05.75-.18,1.08-.37.33-.19.62-.43.85-.72.24-.28.42-.6.56-.96.14-.35.21-.72.21-1.11v-4.73l-1.8.25c-.49.07-.73-.17-.73-.72v-3.7c0-.57.24-.88.73-.96l7.01-.99c.58-.08.88.19.88.8v9.38c0,1.31-.23,2.53-.68,3.64-.45,1.11-1.08,2.09-1.88,2.93-.8.84-1.73,1.53-2.8,2.06-1.07.53-2.22.88-3.43,1.05-1.2.17-2.35.14-3.45-.08-1.1-.22-2.06-.63-2.89-1.24-.83-.61-1.49-1.4-1.99-2.38-.5-.98-.74-2.14-.74-3.49v-17.85c0-1.31.24-2.53.73-3.65.49-1.12,1.15-2.09,1.97-2.94.83-.85,1.79-1.54,2.9-2.07,1.1-.54,2.26-.89,3.48-1.06,1.14-.16,2.14-.16,3.01,0,.87.16,1.62.43,2.26.8.64.37,1.18.82,1.61,1.36s.78,1.1,1.04,1.69c.26.6.44,1.2.55,1.81.11.61.16,1.17.16,1.7v2.22c0,.37-.06.64-.17.81-.11.17-.31.27-.58.31l-4.6.65c-.28.04-.46,0-.56-.14s-.15-.36-.15-.68v-2.14c0-.36-.06-.7-.17-1.04-.11-.33-.28-.62-.51-.86-.23-.24-.5-.43-.83-.54-.32-.12-.69-.15-1.1-.09-.78.11-1.4.48-1.86,1.09-.46.62-.69,1.31-.69,2.09v17.31c0,.88.25,1.55.74,2"/>
        <path class="cls-3" d="M19.99,53.45c0-1.02.21-2.02.64-2.98.43-.96,1.02-1.83,1.78-2.6.76-.77,1.63-1.42,2.63-1.94,1-.52,2.07-.86,3.23-1.03,1.17-.16,2.26-.14,3.29.07,1.02.21,1.91.59,2.67,1.13.75.54,1.35,1.24,1.79,2.09.44.85.66,1.82.66,2.9v11.08c0,1.1-.22,2.14-.66,3.1-.44.96-1.04,1.83-1.79,2.59-.76.76-1.64,1.4-2.65,1.89-1.01.5-2.1.83-3.25.99-1.15.16-2.24.13-3.25-.08-1.01-.21-1.9-.6-2.65-1.15-.75-.55-1.35-1.25-1.78-2.09-.43-.84-.64-1.81-.64-2.92v-11.08ZM26.15,63.49c0,.28.05.54.16.78.1.25.25.46.45.63.19.18.43.3.69.39.27.08.56.1.89.06.67-.09,1.19-.39,1.58-.89.39-.5.59-1.03.59-1.58v-10.72c0-.55-.2-1.02-.59-1.42-.39-.39-.92-.54-1.58-.45-.34.05-.65.15-.91.31-.27.16-.5.35-.68.58-.19.23-.33.48-.44.76-.11.27-.16.54-.16.8v10.74Z"/>
        <path class="cls-3" d="M38.72,50.82c0-1.02.21-2.01.65-2.98.43-.96,1.02-1.83,1.78-2.6s1.63-1.42,2.63-1.94c1-.52,2.07-.86,3.23-1.03,1.17-.17,2.26-.14,3.29.07,1.02.21,1.91.59,2.67,1.13.76.54,1.35,1.24,1.79,2.09.44.85.66,1.82.66,2.9v11.08c0,1.1-.22,2.14-.66,3.1-.44.96-1.04,1.83-1.79,2.59-.75.76-1.64,1.4-2.65,1.89s-2.1.83-3.25.99c-1.15.16-2.24.13-3.25-.08-1.01-.21-1.9-.6-2.65-1.15s-1.35-1.25-1.78-2.09c-.43-.84-.65-1.81-.65-2.92v-11.08ZM44.88,60.86c0,.28.05.54.16.78.1.25.26.46.45.63.19.18.43.31.69.39s.56.1.89.06c.67-.09,1.19-.39,1.58-.89.39-.5.58-1.03.58-1.58v-10.71c0-.55-.19-1.02-.58-1.42-.39-.39-.92-.54-1.58-.45-.34.05-.65.15-.91.31-.27.16-.5.35-.68.58-.19.23-.33.48-.44.76-.1.27-.16.54-.16.8v10.74Z"/>
        <path class="cls-3" d="M74.13,56.92c0,1.11-.21,2.14-.65,3.1-.43.96-1.02,1.82-1.78,2.59-.76.76-1.64,1.39-2.65,1.89-1.02.5-2.1.83-3.25.99-1.15.16-2.24.14-3.25-.08-1.01-.21-1.9-.6-2.65-1.15-.76-.55-1.35-1.25-1.79-2.09-.44-.84-.66-1.81-.66-2.92v-11.08c0-1.09.19-2.11.57-3.08.38-.96.91-1.82,1.58-2.56.67-.74,1.47-1.36,2.39-1.84.92-.49,1.92-.8,3.01-.96.93-.13,1.92-.04,2.97.26v-8.16c0-.55.27-.87.8-.94l4.53-.63c.55-.08.83.16.83.71v25.93ZM67.96,46.8c-.02-.26-.08-.5-.18-.74-.11-.24-.26-.44-.45-.61-.19-.17-.42-.29-.68-.37-.26-.08-.55-.09-.88-.05-.67.09-1.19.39-1.58.89-.39.5-.58,1.03-.58,1.58v10.71c0,.28.05.54.15.78.1.25.24.46.43.64.19.18.41.31.68.39.27.08.57.1.91.05.32-.05.62-.15.89-.31.27-.16.5-.35.7-.58.19-.23.34-.48.45-.76.1-.28.16-.55.16-.83v-10.81Z"/>
        <path class="cls-3" d="M92.85,54.29c0,1.11-.21,2.14-.65,3.1-.43.96-1.02,1.82-1.78,2.59-.76.76-1.64,1.39-2.65,1.89-1.02.5-2.1.83-3.25.99-1.15.16-2.24.13-3.25-.08-1.01-.21-1.9-.6-2.65-1.15-.76-.55-1.35-1.25-1.79-2.09-.44-.84-.66-1.81-.66-2.92v-11.08c0-1.09.19-2.11.57-3.08.38-.96.91-1.82,1.58-2.56.67-.74,1.47-1.36,2.39-1.84.92-.49,1.92-.8,3.01-.96.93-.13,1.91-.04,2.97.26v-8.16c0-.55.27-.87.8-.94l4.53-.63c.55-.08.83.16.83.71v25.93ZM86.69,44.17c-.02-.26-.08-.5-.18-.74-.1-.24-.25-.44-.45-.61-.19-.17-.42-.29-.68-.37-.26-.08-.55-.09-.88-.05-.67.09-1.19.39-1.58.89-.39.5-.59,1.03-.59,1.58v10.71c0,.28.05.54.15.78.1.25.24.46.43.64.19.18.41.31.68.39.27.08.57.1.91.05.32-.04.62-.15.89-.31s.5-.35.69-.58c.2-.23.35-.48.45-.76.1-.28.16-.55.16-.83v-10.81Z"/>
        <path class="cls-3" d="M95.72,38.98c-.05-.1-.09-.22-.12-.33-.03-.12-.04-.24-.01-.36.02-.12.08-.25.18-.38.1-.13.25-.27.46-.43.44-.34.9-.67,1.38-.98.48-.32,1-.61,1.56-.89.56-.27,1.18-.52,1.85-.74.67-.22,1.44-.39,2.3-.51,1.01-.14,2-.11,2.98.08.98.2,1.86.57,2.63,1.12.77.55,1.4,1.27,1.88,2.17.48.9.72,1.98.72,3.25v10.62c0,1.01-.15,1.91-.44,2.71-.29.8-.68,1.52-1.16,2.13-.48.62-1.02,1.15-1.62,1.61-.6.45-1.21.83-1.83,1.13-.62.31-1.22.54-1.8.72-.58.17-1.1.29-1.53.35-.96.13-1.94.12-2.93-.04-1-.16-1.91-.5-2.73-1.02-.82-.51-1.49-1.24-2.01-2.17-.52-.93-.78-2.1-.78-3.51v-.54c0-1.28.21-2.42.64-3.41.43-.99,1-1.83,1.72-2.53.71-.69,1.55-1.25,2.5-1.66.95-.42,1.94-.69,2.96-.82l2.87-.38v-1.74c0-.38-.06-.75-.17-1.13-.11-.38-.29-.71-.54-1-.24-.29-.56-.52-.95-.67-.39-.16-.86-.2-1.41-.12-1.01.14-1.85.4-2.52.76-.67.36-1.24.74-1.69,1.13-.23.18-.45.3-.66.36-.21.06-.38-.02-.51-.25l-1.22-2.53ZM105.39,48.53l-1.15.16c-.67.09-1.22.25-1.66.48-.44.22-.78.49-1.04.8-.25.31-.43.66-.53,1.04-.11.38-.16.76-.16,1.16v.36c0,.47.07.86.22,1.18.15.31.33.56.56.74.23.18.48.3.75.36.28.06.55.07.83.03.26-.04.52-.12.77-.24.25-.12.48-.29.69-.51.21-.22.38-.48.51-.78.13-.3.2-.66.2-1.06v-3.7Z"/>
        <path class="cls-3" d="M130.52,55.11c0,1.27-.19,2.44-.56,3.52-.37,1.08-.93,2.04-1.67,2.88-.74.84-1.65,1.53-2.74,2.08-1.09.55-2.35.93-3.77,1.13-1.51.21-2.86.21-4.06-.01-1.19-.22-2.18-.56-2.96-1.02-.23-.11-.38-.28-.45-.5s-.04-.45.09-.69l1.34-3.14c.15-.26.31-.4.5-.42.19-.02.39.03.6.15.24.14.53.27.86.38.33.11.68.2,1.04.27.36.07.72.12,1.08.14.37.02.71.01,1.03-.04.46-.07.89-.18,1.32-.36.42-.17.79-.42,1.12-.73.32-.31.58-.71.78-1.18.19-.47.29-1.05.29-1.73v-1.37c-.58.42-1.18.77-1.8,1.04-.62.28-1.23.45-1.85.54-.99.14-1.91.09-2.75-.13-.85-.23-1.57-.63-2.18-1.2-.61-.57-1.08-1.3-1.42-2.17-.34-.88-.51-1.89-.51-3.04v-15.32c0-.28.07-.49.21-.65.14-.16.31-.25.52-.28l4.72-.66c.21-.03.38.01.51.13.13.12.2.32.2.59v15.27c0,.57.2,1.04.6,1.43.4.38.93.53,1.6.43.34-.05.64-.16.91-.35s.49-.41.68-.68c.19-.27.33-.56.43-.88.1-.31.15-.62.15-.91v-14.68c0-.19.04-.37.11-.51.07-.15.16-.27.26-.37.1-.09.2-.17.3-.22.11-.05.19-.09.26-.1l4.5-.63c.2-.03.37.02.51.14.15.12.22.31.22.59v23.28Z"/>
        <path class="cls-3" d="M83.48,31.27c-.74-1.25-1.61-2.38-2.6-3.41-.25-.26-.51-.51-.78-.76-.28-.25-.53-.46-.82-.69-.57-.46-1.18-.88-1.81-1.24-1.27-.73-2.63-1.26-4.03-1.61-1.4-.34-2.85-.49-4.29-.46-1.44.04-2.88.25-4.27.69-1.39.44-2.7,1.08-3.9,1.87-.83.55-1.63,1.19-2.34,1.93-.08-.09-.16-.18-.24-.26l-.3-.32c-.11-.11-.21-.21-.32-.31-.22-.21-.44-.4-.68-.58-.93-.74-1.96-1.31-3.04-1.74-1.09-.42-2.23-.7-3.41-.79-.59-.04-1.18-.03-1.78.04-.6.07-1.18.2-1.74.38-.56.18-1.11.42-1.63.71-.26.15-.51.31-.76.49-.24.18-.47.37-.69.57-.44.4-.83.84-1.18,1.32-.17.24-.33.5-.48.76-.14.26-.27.52-.38.79-.45,1.07-.72,2.19-.83,3.32-.1.99-.07,1.99.06,2.97-.01,0-.02.01-.04.02-.14.07-.28.15-.41.23-.27.16-.53.34-.79.52-.51.37-.98.79-1.4,1.26-.85.95-1.43,2.06-1.8,3.24-.37,1.17-.52,2.42-.34,3.64.18,1.21.67,2.36,1.41,3.29-.63-1.01-1.01-2.17-1.07-3.33-.07-1.16.16-2.32.59-3.39.22-.53.48-1.04.79-1.53.31-.49.66-.92,1.06-1.32.4-.39.85-.74,1.32-1.05.24-.15.48-.29.73-.42.13-.06.25-.12.38-.18.12-.05.26-.11.37-.15l.4-.14-.04-.46c-.1-1.02-.08-2.05.07-3.06.14-1,.43-1.98.87-2.87.11-.22.23-.44.35-.65.12-.2.26-.39.41-.58.3-.37.64-.72,1.01-1.03.19-.15.38-.29.58-.42.2-.13.4-.25.61-.36.43-.22.88-.39,1.34-.52.46-.13.94-.22,1.41-.25.47-.03.95-.02,1.43.03.96.1,1.92.37,2.82.75.9.39,1.74.9,2.48,1.52.18.15.36.31.53.48.09.08.16.17.25.25l.24.28c.36.41.68.78.92,1.14l.82,1.25.95-1.21c.72-.92,1.67-1.71,2.71-2.38,1.05-.66,2.18-1.19,3.35-1.53,2.35-.69,4.92-.71,7.3-.11,1.2.3,2.35.75,3.4,1.37.52.3,1.03.65,1.49,1.03.24.19.5.41.71.61.23.2.45.42.66.64.86.89,1.64,1.89,2.27,2.95.35.59.65,1.21.87,1.83l2.15-1.16c-.26-.67-.59-1.3-.94-1.9"/>
      </g>
    </g>
  </g>
</svg>