<?xml version="1.0" encoding="UTF-8"?>
<svg xmlns="http://www.w3.org/2000/svg" xmlns:xlink="http://www.w3.org/1999/xlink" viewBox="0 0 2023.79 948">
  <defs>
    <style>
      .cls-1 {
        clip-path: url(#clippath-2);
      }

      .cls-2 {
        isolation: isolate;
      }

      .cls-3 {
        fill: #f7b000;
      }

      .cls-3, .cls-4 {
        stroke-width: 0px;
      }

      .cls-4 {
        fill: none;
      }

      .cls-5 {
        clip-path: url(#clippath-1);
      }

      .cls-6 {
        mix-blend-mode: multiply;
        opacity: .3;
      }

      .cls-7 {
        clip-path: url(#clippath);
      }

      .cls-8 {
        clip-path: url(#clippath-3);
      }
    </style>
    <clipPath id="clippath">
      <rect class="cls-4" x="-2432.01" y="-1191.81" width="101.93" height="885.05"/>
    </clipPath>
    <clipPath id="clippath-1">
      <rect class="cls-4" x="-3330.55" y="-1191.81" width="3848.9" height="2566.94"/>
    </clipPath>
    <clipPath id="clippath-2">
      <rect class="cls-4" width="2023.79" height="948"/>
    </clipPath>
    <clipPath id="clippath-3">
      <rect class="cls-4" y="0" width="2023.79" height="947.99"/>
    </clipPath>
  </defs>
  <g class="cls-2">
    <g id="Layer_1" data-name="Layer 1">
      <g class="cls-6">
        <g class="cls-1">
          <g class="cls-8">
            <path class="cls-3" d="M16.68,912.88c-18.62-28.32-21.65-70.32-9.1-126.01l72.35-321.14c15.59-69.2,38.99-122.98,70.2-161.35,31.21-38.36,71.7-61,121.48-67.9,43.38-6.01,75.15,3.21,95.31,27.65,20.14,24.45,24.26,63.16,12.32,116.14l-27.04,120.02-117.14,16.23,23.21-102.99c4.5-19.99,5.55-33.49,3.15-40.5-2.41-7-8.64-9.8-18.68-8.41-10.51,1.45-18.68,6.78-24.5,15.97-5.83,9.19-10.63,22.17-14.41,38.92l-78.75,349.52c-4.14,18.39-4.88,31.45-2.2,39.19,2.67,7.76,8.58,10.99,17.72,9.72,18.26-2.53,31.36-21.36,39.28-56.51l28.32-125.7,118.51-16.42-29.6,131.38c-26.31,116.78-89.02,182.03-188.12,195.76-42.93,5.95-73.71-5.23-92.32-33.56"/>
            <polygon class="cls-3" points="298.16 913.95 455.11 217.35 572.24 201.12 516.15 450.08 571.64 442.39 627.73 193.43 744.87 177.2 587.92 873.81 470.78 890.04 542.04 573.77 486.55 581.45 415.3 897.72 298.16 913.95"/>
            <path class="cls-3" d="M624.23,868.78l213.81-704.49,199.34-27.62-100.78,688.83-111.66,15.47,17.18-111.58-71.24,9.87-32.25,113.67-114.4,15.85ZM906.57,269.5l-98.35,255.11,42.31-14.96-54.74,171.8,136.85-240.96-57.78,14.09,31.71-185.08Z"/>
            <path class="cls-3" d="M1129.16,123.96l180.85-25.06c28.77-3.99,49.3.63,61.58,13.86,12.29,13.22,18.03,33.38,17.24,60.46-.79,27.09-6.07,62.25-15.81,105.5-8.89,39.47-20.18,70.89-33.84,94.25-13.68,23.38-32.22,40.87-55.63,52.49,16.83,1.86,27.36,10.62,31.58,26.26,4.21,15.66,3.09,37.81-3.36,66.46l-60.75,263.75-115.09,15.94,61.39-272.48c4.38-19.46,3.99-31.45-1.18-35.97-5.19-4.51-16.22-5.61-33.11-3.27l-71.62,317.89-119.19,16.51,156.95-696.61ZM1219.02,361.34c16.44-2.28,29.41-24.5,38.91-66.67,4.14-18.37,6.56-32.06,7.26-41.07.7-9-.38-15-3.24-18.01-2.87-3-7.72-4.04-14.57-3.09l-27.4,3.8-29.05,128.94,28.09-3.89Z"/>
            <path class="cls-3" d="M1335.84,725.01c-12.81-32.52-11.1-84.75,5.1-156.65l67.6-300.05c14.5-64.33,37.55-114.66,69.19-151,31.63-36.32,71.43-57.82,119.38-64.46,38.81-5.38,66.88-.36,84.21,15.04,17.32,15.41,26.13,40.12,26.44,74.11.3,34.01-5.76,78.58-18.18,133.72l-115.09,15.95,14.07-62.45c3.77-16.75,4.75-29.46,2.95-38.12-1.82-8.65-7.75-12.28-17.79-10.89-22.38,3.1-37.47,21.96-45.26,56.55l-76.01,337.36c-4.75,21.09-6.06,36.72-3.93,46.9,2.12,10.19,8.9,14.48,20.32,12.9,11.41-1.58,20.62-8.09,27.63-19.54,6.99-11.44,12.88-27.71,17.63-48.8l22.47-99.75-31.51,4.37,27.04-120.02,143.85-19.93-91.35,405.48-47.27,6.55-6.71-55.64c-30.76,46.17-68.05,72.28-111.89,78.35-42.47,5.88-70.11-7.44-82.91-39.97"/>
            <polygon class="cls-3" points="1631.19 729.26 1788.14 32.65 2023.79 0 1993.46 134.62 1877.69 150.66 1847.17 286.09 1958.15 270.72 1928.55 402.09 1817.57 417.47 1781.58 577.22 1904.89 560.14 1874.37 695.57 1631.19 729.26"/>
          </g>
        </g>
      </g>
    </g>
  </g>
</svg>